<?xml version="1.0" encoding="UTF-8" standalone="no"?>
<!-- Created with Inkscape (http://www.inkscape.org/) -->

<svg
   xmlns:dc="http://purl.org/dc/elements/1.1/"
   xmlns:cc="http://creativecommons.org/ns#"
   xmlns:rdf="http://www.w3.org/1999/02/22-rdf-syntax-ns#"
   xmlns:svg="http://www.w3.org/2000/svg"
   xmlns="http://www.w3.org/2000/svg"
   xmlns:sodipodi="http://sodipodi.sourceforge.net/DTD/sodipodi-0.dtd"
   xmlns:inkscape="http://www.inkscape.org/namespaces/inkscape"
   width="217mm"
   height="202mm"
   viewBox="0 0 768.89764 715.74803"
   id="svg2"
   version="1.1"
   inkscape:version="0.91 r13725"
   sodipodi:docname="alarm_active.svg">
  <defs
     id="defs4" />
  <sodipodi:namedview
     id="base"
     pagecolor="#ffffff"
     bordercolor="#666666"
     borderopacity="1.0"
     inkscape:pageopacity="0.0"
     inkscape:pageshadow="2"
     inkscape:zoom="0.35"
     inkscape:cx="-289.28571"
     inkscape:cy="520"
     inkscape:document-units="px"
     inkscape:current-layer="layer1"
     showgrid="false"
     showborder="false"
     inkscape:window-width="1680"
     inkscape:window-height="975"
     inkscape:window-x="-9"
     inkscape:window-y="-9"
     inkscape:window-maximized="1" />
  <metadata
     id="metadata7">
    <rdf:RDF>
      <cc:Work
         rdf:about="">
        <dc:format>image/svg+xml</dc:format>
        <dc:type
           rdf:resource="http://purl.org/dc/dcmitype/StillImage" />
        <dc:title></dc:title>
      </cc:Work>
    </rdf:RDF>
  </metadata>
  <g
     inkscape:label="Ebene 1"
     inkscape:groupmode="layer"
     id="layer1"
     transform="translate(0,-336.61417)">
    <path
       style="fill:#ff0000;fill-opacity:1"
       d="m 2.9464043,693.79076 0,-361.33928 385.6249957,0 385.625,0 0,361.33928 0,361.33934 -385.625,0 -385.6249957,0 0,-361.33934 z m 579.5783957,196.7054 0,-36.3477 -15.71022,0 c -15.2201,0 -15.75404,-0.567 -17.11354,-18.1739 l -1.40331,-18.1738 -159.72633,0 -159.72633,0 -0.27062,17.1048 c -0.26223,16.5726 -0.79471,17.1461 -17.11354,18.432 l -16.84291,1.3272 0,36.0896 0,36.0896 193.9534,0 193.9534,0 0,-36.3478 z M 258.56067,706.61936 c 2.23373,-77.7592 2.85699,-82.1659 14.51517,-102.6289 13.29449,-23.335 27.10229,-38.3684 50.79013,-55.2982 21.52083,-15.38093 22.86579,-13.68357 4.00371,5.0528 -8.87883,8.8197 -21.44307,26.6194 -27.92051,39.5549 -11.43126,22.8283 -11.77718,26.0311 -11.77718,109.0432 l 0,85.5241 130.06287,0 130.06287,0 1.2696,-61.456 c 0.69828,-33.8008 -0.84235,-72.1609 -3.42357,-85.2447 -9.60763,-48.6995 -37.38482,-84.8254 -83.06682,-108.03348 -27.11861,-13.77721 -31.49873,-14.6667 -72.22373,-14.6667 -37.35889,0 -46.9187,1.56588 -69.12939,11.32323 -31.40365,13.79585 -58.65807,38.56325 -75.60936,68.70955 -12.47085,22.1783 -12.73328,24.1636 -14.19328,107.3665 l -1.4875,84.7705 12.89652,-1.3845 12.89653,-1.3844 2.33394,-81.2479 z m -124.98297,14.1049 c 1.86388,-2.8259 2.85856,-23.6419 2.21038,-46.2578 -2.09335,-73.0405 19.98287,-126.0037 73.76173,-176.96237 17.85795,-16.92146 30.14097,-31.97406 28.78764,-35.27869 -5.05758,-12.3498 -20.88836,-4.67879 -49.98142,24.21915 -32.6334,32.41453 -57.86418,74.06021 -69.27288,114.34121 -8.12123,28.6738 -9.52501,103.4305 -2.18357,116.2842 5.66801,9.9238 11.67487,11.2399 16.67812,3.6543 z m 525.68757,-0.3268 c 2.66214,-3.0057 6.14541,-19.8433 7.74062,-37.4168 4.95895,-54.6301 -13.2587,-117.2374 -47.80431,-164.28562 -19.53403,-26.60371 -59.0219,-62.23362 -68.97216,-62.23362 -17.62471,0 -13.42929,10.40492 15.26281,37.85271 36.62817,35.03967 50.11413,55.15173 65.60407,97.83753 10.22902,28.1883 12.02575,40.3444 11.86265,80.2581 -0.10588,25.871 0.74989,48.4815 1.90138,50.2454 3.13105,4.7963 8.96736,3.8815 14.40494,-2.2577 z m -473.64236,-63.2957 c 2.13396,-43.1713 4.07513,-52.151 16.7374,-77.4264 8.6071,-17.1808 24.53032,-38.4657 39.89871,-53.3334 23.64787,-22.87747 29.2106,-35.67091 15.51013,-35.67091 -10.43849,0 -53.48103,46.27438 -67.84743,72.94171 -18.91923,35.1185 -28.87472,80.0689 -25.01022,112.9245 3.36147,28.579 5.38133,33.397 13.01118,31.0356 3.39872,-1.0519 6.14823,-19.0735 7.70023,-50.4711 z m 424.3965,40.6868 c 12.37304,-30.494 -0.69924,-102.3197 -25.75418,-141.5064 -17.25706,-26.99057 -54.95818,-65.61111 -64.04917,-65.61111 -14.11227,0 -9.57235,11.03388 14.11374,34.3024 42.53786,41.78791 66.34672,102.62531 59.69261,152.52891 -1.65399,12.4046 -1.71597,24.5116 -0.13782,26.9045 4.93508,7.4822 11.50723,4.7864 16.13468,-6.6183 z"
       id="path4147"
       inkscape:connector-curvature="0" />
  </g>
</svg>
