<?xml version="1.0" encoding="UTF-8" standalone="no"?>
<!-- Created with Inkscape (http://www.inkscape.org/) -->

<svg
   xmlns:dc="http://purl.org/dc/elements/1.1/"
   xmlns:cc="http://creativecommons.org/ns#"
   xmlns:rdf="http://www.w3.org/1999/02/22-rdf-syntax-ns#"
   xmlns:svg="http://www.w3.org/2000/svg"
   xmlns="http://www.w3.org/2000/svg"
   xmlns:sodipodi="http://sodipodi.sourceforge.net/DTD/sodipodi-0.dtd"
   xmlns:inkscape="http://www.inkscape.org/namespaces/inkscape"
   width="1920"
   height="1083"
   viewBox="0 0 1920 1083"
   id="svg2"
   version="1.1"
   inkscape:version="0.91 r13725"
   sodipodi:docname="Loops_WGTS.svg">
  <defs
     id="defs4">
    <clipPath
       id="clipPath4276"
       clipPathUnits="userSpaceOnUse">
      <path
         style="clip-rule:evenodd"
         inkscape:connector-curvature="0"
         id="path4278"
         d="M 2.8599e-5,0 1919.25,0 l 0,1080 -1919.249971401,0 0,-1080 z" />
    </clipPath>
    <clipPath
       id="clipPath4292"
       clipPathUnits="userSpaceOnUse">
      <path
         style="clip-rule:evenodd"
         inkscape:connector-curvature="0"
         id="path4294"
         d="M 2.8599e-5,0 1919.25,0 l 0,1080 -1919.249971401,0 0,-1080 z" />
    </clipPath>
    <clipPath
       id="clipPath4338"
       clipPathUnits="userSpaceOnUse">
      <path
         style="clip-rule:evenodd"
         inkscape:connector-curvature="0"
         id="path4340"
         d="M 2.8599e-5,0 1919.25,0 l 0,1080 -1919.249971401,0 0,-1080 z" />
    </clipPath>
    <clipPath
       id="clipPath4350"
       clipPathUnits="userSpaceOnUse">
      <path
         style="clip-rule:evenodd"
         inkscape:connector-curvature="0"
         id="path4352"
         d="M 2.8599e-5,0 1919.25,0 l 0,1080 -1919.249971401,0 0,-1080 z" />
    </clipPath>
    <clipPath
       id="clipPath4362"
       clipPathUnits="userSpaceOnUse">
      <path
         style="clip-rule:evenodd"
         inkscape:connector-curvature="0"
         id="path4364"
         d="M 2.8599e-5,0 1919.25,0 l 0,1080 -1919.249971401,0 0,-1080 z" />
    </clipPath>
    <clipPath
       id="clipPath4370"
       clipPathUnits="userSpaceOnUse">
      <path
         style="clip-rule:evenodd"
         inkscape:connector-curvature="0"
         id="path4372"
         d="M 2.8599e-5,0 1919.25,0 l 0,1080 -1919.249971401,0 0,-1080 z" />
    </clipPath>
    <clipPath
       id="clipPath4382"
       clipPathUnits="userSpaceOnUse">
      <path
         style="clip-rule:evenodd"
         inkscape:connector-curvature="0"
         id="path4384"
         d="M -1.907e-6,1080 1919.25,1080 1919.25,0 -1.907e-6,0" />
    </clipPath>
  </defs>
  <sodipodi:namedview
     id="base"
     pagecolor="#ffffff"
     bordercolor="#666666"
     borderopacity="1.0"
     inkscape:pageopacity="0.0"
     inkscape:pageshadow="2"
     inkscape:zoom="0.5"
     inkscape:cx="1130.4615"
     inkscape:cy="461.04265"
     inkscape:document-units="px"
     inkscape:current-layer="layer1"
     showgrid="false"
     units="px"
     fit-margin-top="0"
     fit-margin-left="0"
     fit-margin-right="0"
     fit-margin-bottom="0"
     inkscape:window-width="962"
     inkscape:window-height="1008"
     inkscape:window-x="-7"
     inkscape:window-y="0"
     inkscape:window-maximized="0" />
  <metadata
     id="metadata7">
    <rdf:RDF>
      <cc:Work
         rdf:about="">
        <dc:format>image/svg+xml</dc:format>
        <dc:type
           rdf:resource="http://purl.org/dc/dcmitype/StillImage" />
        <dc:title></dc:title>
      </cc:Work>
    </rdf:RDF>
  </metadata>
  <g
     inkscape:label="Ebene 1"
     inkscape:groupmode="layer"
     id="layer1"
     transform="translate(-206.44793,356.09204)">
    <g
       transform="matrix(1.0175514,0,0,-1.0175514,191.75411,726.45575)"
       inkscape:label="wgtsloop"
       id="g4144">
      <path
         inkscape:connector-curvature="0"
         id="path4146"
         style="fill:#ffffff;fill-opacity:1;fill-rule:evenodd;stroke:none"
         d="m 134.26,600.41 14.31,0 0,-23.86 24.56,-24.8 19.09,0 0,-60.75 -19.09,0 -24.56,-33.72 0,-23.86 -14.31,0 0,166.99 z" />
      <path
         inkscape:connector-curvature="0"
         id="path4148"
         style="fill:none;stroke:#000000;stroke-width:3;stroke-linecap:butt;stroke-linejoin:miter;stroke-miterlimit:10;stroke-dasharray:none;stroke-opacity:1"
         d="m 134.26,600.41 14.31,0 0,-23.86 24.56,-24.8 19.09,0 0,-60.75 -19.09,0 -24.56,-33.72 0,-23.86 -14.31,0 0,166.99 z" />
      <path
         inkscape:connector-curvature="0"
         id="path4150"
         style="fill:#ffffff;fill-opacity:1;fill-rule:evenodd;stroke:none"
         d="m 103.23,363.85 56.988,0 0,286.27 -56.988,0 0,-286.27 z" />
      <path
         inkscape:connector-curvature="0"
         id="path4152"
         style="fill:#ffffff;fill-opacity:1;fill-rule:evenodd;stroke:none"
         d="m 217.32,491.38 126.17,0 0,60.745 -126.17,0 0,-60.745 z" />
      <path
         inkscape:connector-curvature="0"
         id="path4154"
         style="fill:none;stroke:#000000;stroke-width:3;stroke-linecap:butt;stroke-linejoin:miter;stroke-miterlimit:10;stroke-dasharray:none;stroke-opacity:1"
         d="m 217.32,491.38 126.17,0 0,60.745 -126.17,0 0,-60.745 z" />
      <path
         inkscape:connector-curvature="0"
         id="path4156"
         style="fill:#ffffff;fill-opacity:1;fill-rule:evenodd;stroke:none"
         d="m 343.2,553.18 0,-62.84 c 4.22,-7.14 8.68,-10.2 13.92,0 l 0,62.84 c -4.13,8.73 -8.76,8.73 -13.92,0 z" />
      <path
         inkscape:connector-curvature="0"
         id="path4158"
         style="fill:none;stroke:#000000;stroke-width:3;stroke-linecap:butt;stroke-linejoin:miter;stroke-miterlimit:10;stroke-dasharray:none;stroke-opacity:1"
         d="m 343.2,553.18 0,-62.84 c 4.22,-7.14 8.68,-10.2 13.92,0 l 0,62.84 c -4.13,8.73 -8.76,8.73 -13.92,0 z" />
      <path
         inkscape:connector-curvature="0"
         id="path4160"
         style="fill:#ffffff;fill-opacity:1;fill-rule:evenodd;stroke:none"
         d="m 357.69,553.18 0,-62.84 c 4.21,-7.14 8.67,-10.2 13.91,0 l 0,62.84 c -4.12,8.73 -8.76,8.73 -13.91,0 z" />
      <path
         inkscape:connector-curvature="0"
         id="path4162"
         style="fill:none;stroke:#000000;stroke-width:3;stroke-linecap:butt;stroke-linejoin:miter;stroke-miterlimit:10;stroke-dasharray:none;stroke-opacity:1"
         d="m 357.69,553.18 0,-62.84 c 4.21,-7.14 8.67,-10.2 13.91,0 l 0,62.84 c -4.12,8.73 -8.76,8.73 -13.91,0 z" />
      <path
         inkscape:connector-curvature="0"
         id="path4164"
         style="fill:#ffffff;fill-opacity:1;fill-rule:evenodd;stroke:none"
         d="m 371.6,378.16 56.988,0 0,286.27 -56.988,0 0,-286.27 z" />
      <path
         inkscape:connector-curvature="0"
         id="path4166"
         style="fill:none;stroke:#000000;stroke-width:3;stroke-linecap:butt;stroke-linejoin:miter;stroke-miterlimit:10;stroke-dasharray:none;stroke-opacity:1"
         d="m 371.6,378.16 56.988,0 0,286.27 -56.988,0 0,-286.27 z" />
      <path
         inkscape:connector-curvature="0"
         id="path4168"
         style="fill:#ffffff;fill-opacity:1;fill-rule:evenodd;stroke:none"
         d="m 743.75,491.38 400.77,0 0,60.745 -400.77,0 0,-60.745 z" />
      <path
         inkscape:connector-curvature="0"
         id="path4170"
         style="fill:none;stroke:#000000;stroke-width:3;stroke-linecap:butt;stroke-linejoin:miter;stroke-miterlimit:10;stroke-dasharray:none;stroke-opacity:1"
         d="m 743.75,491.38 400.77,0 0,60.745 -400.77,0 0,-60.745 z" />
      <path
         inkscape:connector-curvature="0"
         id="path4172"
         style="fill:#ffffff;fill-opacity:1;fill-rule:evenodd;stroke:none"
         d="m 454.59,491.38 126.17,0 0,60.745 -126.17,0 0,-60.745 z" />
      <path
         inkscape:connector-curvature="0"
         id="path4174"
         style="fill:none;stroke:#000000;stroke-width:3;stroke-linecap:butt;stroke-linejoin:miter;stroke-miterlimit:10;stroke-dasharray:none;stroke-opacity:1"
         d="m 454.59,491.38 126.17,0 0,60.745 -126.17,0 0,-60.745 z" />
      <path
         inkscape:connector-curvature="0"
         id="path4176"
         style="fill:#ffffff;fill-opacity:1;fill-rule:evenodd;stroke:none"
         d="m 428.85,553.18 0,-62.84 c 4.22,-7.14 8.68,-10.2 13.92,0 l 0,62.84 c -4.12,8.73 -8.76,8.73 -13.92,0 z" />
      <path
         inkscape:connector-curvature="0"
         id="path4178"
         style="fill:none;stroke:#000000;stroke-width:3;stroke-linecap:butt;stroke-linejoin:miter;stroke-miterlimit:10;stroke-dasharray:none;stroke-opacity:1"
         d="m 428.85,553.18 0,-62.84 c 4.22,-7.14 8.68,-10.2 13.92,0 l 0,62.84 c -4.12,8.73 -8.76,8.73 -13.92,0 z" />
      <path
         inkscape:connector-curvature="0"
         id="path4180"
         style="fill:#ffffff;fill-opacity:1;fill-rule:evenodd;stroke:none"
         d="m 443.34,553.18 0,-62.84 c 4.22,-7.14 8.67,-10.2 13.91,0 l 0,62.84 c -4.12,8.73 -8.76,8.73 -13.91,0 z" />
      <path
         inkscape:connector-curvature="0"
         id="path4182"
         style="fill:none;stroke:#000000;stroke-width:3;stroke-linecap:butt;stroke-linejoin:miter;stroke-miterlimit:10;stroke-dasharray:none;stroke-opacity:1"
         d="m 443.34,553.18 0,-62.84 c 4.22,-7.14 8.67,-10.2 13.91,0 l 0,62.84 c -4.12,8.73 -8.76,8.73 -13.91,0 z" />
      <path
         inkscape:connector-curvature="0"
         id="path4184"
         style="fill:#ffffff;fill-opacity:1;fill-rule:evenodd;stroke:none"
         d="m 571.07,553.18 0,-62.84 c 4.22,-7.14 8.68,-10.2 13.92,0 l 0,62.84 c -4.13,8.73 -8.77,8.73 -13.92,0 z" />
      <path
         inkscape:connector-curvature="0"
         id="path4186"
         style="fill:none;stroke:#000000;stroke-width:3;stroke-linecap:butt;stroke-linejoin:miter;stroke-miterlimit:10;stroke-dasharray:none;stroke-opacity:1"
         d="m 571.07,553.18 0,-62.84 c 4.22,-7.14 8.68,-10.2 13.92,0 l 0,62.84 c -4.13,8.73 -8.77,8.73 -13.92,0 z" />
      <path
         inkscape:connector-curvature="0"
         id="path4188"
         style="fill:#ffffff;fill-opacity:1;fill-rule:evenodd;stroke:none"
         d="m 585.55,553.18 0,-62.84 c 4.22,-7.14 8.68,-10.2 13.92,0 l 0,62.84 c -4.12,8.73 -8.76,8.73 -13.92,0 z" />
      <path
         inkscape:connector-curvature="0"
         id="path4190"
         style="fill:none;stroke:#000000;stroke-width:3;stroke-linecap:butt;stroke-linejoin:miter;stroke-miterlimit:10;stroke-dasharray:none;stroke-opacity:1"
         d="m 585.55,553.18 0,-62.84 c 4.22,-7.14 8.68,-10.2 13.92,0 l 0,62.84 c -4.12,8.73 -8.76,8.73 -13.92,0 z" />
      <path
         inkscape:connector-curvature="0"
         id="path4192"
         style="fill:#ffffff;fill-opacity:1;fill-rule:evenodd;stroke:none"
         d="m 600.61,378.16 114.51,0 0,286.27 -114.51,0 0,-286.27 z" />
      <path
         inkscape:connector-curvature="0"
         id="path4194"
         style="fill:none;stroke:#000000;stroke-width:3;stroke-linecap:butt;stroke-linejoin:miter;stroke-miterlimit:10;stroke-dasharray:none;stroke-opacity:1"
         d="m 600.61,378.16 114.51,0 0,286.27 -114.51,0 0,-286.27 z" />
      <path
         inkscape:connector-curvature="0"
         id="path4196"
         style="fill:#ffffff;fill-opacity:1;fill-rule:evenodd;stroke:none"
         d="m 715.12,553.18 0,-62.84 c 4.22,-7.14 8.67,-10.2 13.92,0 l 0,62.84 c -4.13,8.73 -8.77,8.73 -13.92,0 z" />
      <path
         inkscape:connector-curvature="0"
         id="path4198"
         style="fill:none;stroke:#000000;stroke-width:3;stroke-linecap:butt;stroke-linejoin:miter;stroke-miterlimit:10;stroke-dasharray:none;stroke-opacity:1"
         d="m 715.12,553.18 0,-62.84 c 4.22,-7.14 8.67,-10.2 13.92,0 l 0,62.84 c -4.13,8.73 -8.77,8.73 -13.92,0 z" />
      <path
         inkscape:connector-curvature="0"
         id="path4200"
         style="fill:#ffffff;fill-opacity:1;fill-rule:evenodd;stroke:none"
         d="m 729.6,553.18 0,-62.84 c 4.22,-7.14 8.68,-10.2 13.92,0 l 0,62.84 c -4.12,8.73 -8.76,8.73 -13.92,0 z" />
      <path
         inkscape:connector-curvature="0"
         id="path4202"
         style="fill:none;stroke:#000000;stroke-width:3;stroke-linecap:butt;stroke-linejoin:miter;stroke-miterlimit:10;stroke-dasharray:none;stroke-opacity:1"
         d="m 729.6,553.18 0,-62.84 c 4.22,-7.14 8.68,-10.2 13.92,0 l 0,62.84 c -4.12,8.73 -8.76,8.73 -13.92,0 z" />
      <path
         inkscape:connector-curvature="0"
         id="path4204"
         style="fill:#ffffff;fill-opacity:1;fill-rule:evenodd;stroke:none"
         d="m 1528.12,491.38 126.17,0 0,60.745 -126.17,0 0,-60.745 z" />
      <path
         inkscape:connector-curvature="0"
         id="path4206"
         style="fill:none;stroke:#000000;stroke-width:3;stroke-linecap:butt;stroke-linejoin:miter;stroke-miterlimit:10;stroke-dasharray:none;stroke-opacity:1"
         d="m 1528.12,491.38 126.17,0 0,60.745 -126.17,0 0,-60.745 z" />
      <path
         inkscape:connector-curvature="0"
         id="path4208"
         style="fill:#ffffff;fill-opacity:1;fill-rule:evenodd;stroke:none"
         d="m 1545.06,553.18 0,-62.84 c -4.21,-7.14 -8.67,-10.2 -13.91,0 l 0,62.84 c 4.12,8.73 8.76,8.73 13.91,0 z" />
      <path
         inkscape:connector-curvature="0"
         id="path4210"
         style="fill:none;stroke:#000000;stroke-width:3;stroke-linecap:butt;stroke-linejoin:miter;stroke-miterlimit:10;stroke-dasharray:none;stroke-opacity:1"
         d="m 1545.06,553.18 0,-62.84 c -4.21,-7.14 -8.67,-10.2 -13.91,0 l 0,62.84 c 4.12,8.73 8.76,8.73 13.91,0 z" />
      <path
         inkscape:connector-curvature="0"
         id="path4212"
         style="fill:#ffffff;fill-opacity:1;fill-rule:evenodd;stroke:none"
         d="m 1530.58,553.18 0,-62.84 c -4.22,-7.14 -8.68,-10.2 -13.92,0 l 0,62.84 c 4.13,8.73 8.76,8.73 13.92,0 z" />
      <path
         inkscape:connector-curvature="0"
         id="path4214"
         style="fill:none;stroke:#000000;stroke-width:3;stroke-linecap:butt;stroke-linejoin:miter;stroke-miterlimit:10;stroke-dasharray:none;stroke-opacity:1"
         d="m 1530.58,553.18 0,-62.84 c -4.22,-7.14 -8.68,-10.2 -13.92,0 l 0,62.84 c 4.13,8.73 8.76,8.73 13.92,0 z" />
      <path
         inkscape:connector-curvature="0"
         id="path4216"
         style="fill:#ffffff;fill-opacity:1;fill-rule:evenodd;stroke:none"
         d="m 1459.41,378.16 57.253,0 0,286.27 -57.253,0 0,-286.27 z" />
      <path
         inkscape:connector-curvature="0"
         id="path4218"
         style="fill:none;stroke:#000000;stroke-width:3;stroke-linecap:butt;stroke-linejoin:miter;stroke-miterlimit:10;stroke-dasharray:none;stroke-opacity:1"
         d="m 1459.41,378.16 57.253,0 0,286.27 -57.253,0 0,-286.27 z" />
      <path
         inkscape:connector-curvature="0"
         id="path4220"
         style="fill:#ffffff;fill-opacity:1;fill-rule:evenodd;stroke:none"
         d="m 1291.03,491.38 154.07,0 0,60.745 -154.07,0 0,-60.745 z" />
      <path
         inkscape:connector-curvature="0"
         id="path4222"
         style="fill:none;stroke:#000000;stroke-width:3;stroke-linecap:butt;stroke-linejoin:miter;stroke-miterlimit:10;stroke-dasharray:none;stroke-opacity:1"
         d="m 1291.03,491.38 154.07,0 0,60.745 -154.07,0 0,-60.745 z" />
      <path
         inkscape:connector-curvature="0"
         id="path4224"
         style="fill:#ffffff;fill-opacity:1;fill-rule:evenodd;stroke:none"
         d="m 1459.18,553.18 0,-62.84 c -4.21,-7.14 -8.67,-10.2 -13.91,0 l 0,62.84 c 4.12,8.73 8.76,8.73 13.91,0 z" />
      <path
         inkscape:connector-curvature="0"
         id="path4226"
         style="fill:none;stroke:#000000;stroke-width:3;stroke-linecap:butt;stroke-linejoin:miter;stroke-miterlimit:10;stroke-dasharray:none;stroke-opacity:1"
         d="m 1459.18,553.18 0,-62.84 c -4.21,-7.14 -8.67,-10.2 -13.91,0 l 0,62.84 c 4.12,8.73 8.76,8.73 13.91,0 z" />
      <path
         inkscape:connector-curvature="0"
         id="path4228"
         style="fill:#ffffff;fill-opacity:1;fill-rule:evenodd;stroke:none"
         d="m 1444.7,553.18 0,-62.84 c -4.22,-7.14 -8.68,-10.2 -13.92,0 l 0,62.84 c 4.13,8.73 8.76,8.73 13.92,0 z" />
      <path
         inkscape:connector-curvature="0"
         id="path4230"
         style="fill:none;stroke:#000000;stroke-width:3;stroke-linecap:butt;stroke-linejoin:miter;stroke-miterlimit:10;stroke-dasharray:none;stroke-opacity:1"
         d="m 1444.7,553.18 0,-62.84 c -4.22,-7.14 -8.68,-10.2 -13.92,0 l 0,62.84 c 4.13,8.73 8.76,8.73 13.92,0 z" />
      <path
         inkscape:connector-curvature="0"
         id="path4232"
         style="fill:#ffffff;fill-opacity:1;fill-rule:evenodd;stroke:none"
         d="m 1316.05,553.18 0,-62.84 c -4.22,-7.14 -8.67,-10.2 -13.92,0 l 0,62.84 c 4.13,8.73 8.77,8.73 13.92,0 z" />
      <path
         inkscape:connector-curvature="0"
         id="path4234"
         style="fill:none;stroke:#000000;stroke-width:3;stroke-linecap:butt;stroke-linejoin:miter;stroke-miterlimit:10;stroke-dasharray:none;stroke-opacity:1"
         d="m 1316.05,553.18 0,-62.84 c -4.22,-7.14 -8.67,-10.2 -13.92,0 l 0,62.84 c 4.13,8.73 8.77,8.73 13.92,0 z" />
      <path
         inkscape:connector-curvature="0"
         id="path4236"
         style="fill:#ffffff;fill-opacity:1;fill-rule:evenodd;stroke:none"
         d="m 1301.57,553.18 0,-62.84 c -4.22,-7.14 -8.68,-10.2 -13.92,0 l 0,62.84 c 4.12,8.73 8.76,8.73 13.92,0 z" />
      <path
         inkscape:connector-curvature="0"
         id="path4238"
         style="fill:none;stroke:#000000;stroke-width:3;stroke-linecap:butt;stroke-linejoin:miter;stroke-miterlimit:10;stroke-dasharray:none;stroke-opacity:1"
         d="m 1301.57,553.18 0,-62.84 c -4.22,-7.14 -8.68,-10.2 -13.92,0 l 0,62.84 c 4.12,8.73 8.76,8.73 13.92,0 z" />
      <path
         inkscape:connector-curvature="0"
         id="path4240"
         style="fill:#ffffff;fill-opacity:1;fill-rule:evenodd;stroke:none"
         d="m 1173.14,378.16 114.51,0 0,286.27 -114.51,0 0,-286.27 z" />
      <path
         inkscape:connector-curvature="0"
         id="path4242"
         style="fill:none;stroke:#000000;stroke-width:3;stroke-linecap:butt;stroke-linejoin:miter;stroke-miterlimit:10;stroke-dasharray:none;stroke-opacity:1"
         d="m 1173.14,378.16 114.51,0 0,286.27 -114.51,0 0,-286.27 z" />
      <path
         inkscape:connector-curvature="0"
         id="path4244"
         style="fill:#ffffff;fill-opacity:1;fill-rule:evenodd;stroke:none"
         d="m 1173.14,553.18 0,-62.84 c -4.21,-7.14 -8.67,-10.2 -13.91,0 l 0,62.84 c 4.12,8.73 8.76,8.73 13.91,0 z" />
      <path
         inkscape:connector-curvature="0"
         id="path4246"
         style="fill:none;stroke:#000000;stroke-width:3;stroke-linecap:butt;stroke-linejoin:miter;stroke-miterlimit:10;stroke-dasharray:none;stroke-opacity:1"
         d="m 1173.14,553.18 0,-62.84 c -4.21,-7.14 -8.67,-10.2 -13.91,0 l 0,62.84 c 4.12,8.73 8.76,8.73 13.91,0 z" />
      <path
         inkscape:connector-curvature="0"
         id="path4248"
         style="fill:#ffffff;fill-opacity:1;fill-rule:evenodd;stroke:none"
         d="m 1158.66,553.18 0,-62.84 c -4.22,-7.14 -8.67,-10.2 -13.92,0 l 0,62.84 c 4.13,8.73 8.77,8.73 13.92,0 z" />
      <path
         inkscape:connector-curvature="0"
         id="path4250"
         style="fill:none;stroke:#000000;stroke-width:3;stroke-linecap:butt;stroke-linejoin:miter;stroke-miterlimit:10;stroke-dasharray:none;stroke-opacity:1"
         d="m 1158.66,553.18 0,-62.84 c -4.22,-7.14 -8.67,-10.2 -13.92,0 l 0,62.84 c 4.13,8.73 8.77,8.73 13.92,0 z" />
      <path
         inkscape:connector-curvature="0"
         id="path4252"
         style="fill:#ffffff;fill-opacity:1;fill-rule:evenodd;stroke:none"
         d="m 1738.97,600.08 -14.32,0 0,-23.86 -24.56,-24.8 -19.08,0 0,-60.75 19.08,0 24.56,-33.73 0,-23.85 14.32,0 0,166.99 z" />
      <path
         inkscape:connector-curvature="0"
         id="path4254"
         style="fill:none;stroke:#000000;stroke-width:3;stroke-linecap:butt;stroke-linejoin:miter;stroke-miterlimit:10;stroke-dasharray:none;stroke-opacity:1"
         d="m 1738.97,600.08 -14.32,0 0,-23.86 -24.56,-24.8 -19.08,0 0,-60.75 19.08,0 24.56,-33.73 0,-23.85 14.32,0 0,166.99 z" />
      <path
         inkscape:connector-curvature="0"
         id="path4256"
         style="fill:#ffffff;fill-opacity:1;fill-rule:evenodd;stroke:none"
         d="m 1681.61,553.18 0,-62.84 c -4.21,-7.14 -8.67,-10.2 -13.91,0 l 0,62.84 c 4.12,8.73 8.76,8.73 13.91,0 z" />
      <path
         inkscape:connector-curvature="0"
         id="path4258"
         style="fill:none;stroke:#000000;stroke-width:3;stroke-linecap:butt;stroke-linejoin:miter;stroke-miterlimit:10;stroke-dasharray:none;stroke-opacity:1"
         d="m 1681.61,553.18 0,-62.84 c -4.21,-7.14 -8.67,-10.2 -13.91,0 l 0,62.84 c 4.12,8.73 8.76,8.73 13.91,0 z" />
      <path
         inkscape:connector-curvature="0"
         id="path4260"
         style="fill:#ffffff;fill-opacity:1;fill-rule:evenodd;stroke:none"
         d="m 1667.13,553.18 0,-62.84 c -4.22,-7.14 -8.67,-10.2 -13.91,0 l 0,62.84 c 4.12,8.73 8.76,8.73 13.91,0 z" />
      <path
         inkscape:connector-curvature="0"
         id="path4262"
         style="fill:none;stroke:#000000;stroke-width:3;stroke-linecap:butt;stroke-linejoin:miter;stroke-miterlimit:10;stroke-dasharray:none;stroke-opacity:1"
         d="m 1667.13,553.18 0,-62.84 c -4.22,-7.14 -8.67,-10.2 -13.91,0 l 0,62.84 c 4.12,8.73 8.76,8.73 13.91,0 z" />
      <path
         inkscape:connector-curvature="0"
         id="path4264"
         style="fill:#ffffff;fill-opacity:1;fill-rule:evenodd;stroke:none"
         d="m 190,553.18 0,-62.84 c 4.21,-7.14 8.67,-10.2 13.91,0 l 0,62.84 c -4.12,8.73 -8.76,8.73 -13.91,0 z" />
      <path
         inkscape:connector-curvature="0"
         id="path4266"
         style="fill:none;stroke:#000000;stroke-width:3;stroke-linecap:butt;stroke-linejoin:miter;stroke-miterlimit:10;stroke-dasharray:none;stroke-opacity:1"
         d="m 190,553.18 0,-62.84 c 4.21,-7.14 8.67,-10.2 13.91,0 l 0,62.84 c -4.12,8.73 -8.76,8.73 -13.91,0 z" />
      <path
         inkscape:connector-curvature="0"
         id="path4268"
         style="fill:#ffffff;fill-opacity:1;fill-rule:evenodd;stroke:none"
         d="m 204.48,553.18 0,-62.84 c 4.22,-7.14 8.68,-10.2 13.92,0 l 0,62.84 c -4.13,8.73 -8.76,8.73 -13.92,0 z" />
      <path
         inkscape:connector-curvature="0"
         id="path4270"
         style="fill:none;stroke:#000000;stroke-width:3;stroke-linecap:butt;stroke-linejoin:miter;stroke-miterlimit:10;stroke-dasharray:none;stroke-opacity:1"
         d="m 204.48,553.18 0,-62.84 c 4.22,-7.14 8.68,-10.2 13.92,0 l 0,62.84 c -4.13,8.73 -8.76,8.73 -13.92,0 z" />
      <g
         id="g4272">
        <g
           clip-path="url(#clipPath4276)"
           id="g4274">
          <text
             id="text4280"
             style="font-variant:normal;font-weight:normal;font-size:36.02500153px;font-family:Calibri;-inkscape-font-specification:Calibri;writing-mode:lr-tb;fill:#000000;fill-opacity:1;fill-rule:nonzero;stroke:none"
             transform="matrix(1,0,0,-1,57.675,789.17)">
            <tspan
               id="tspan4282"
               sodipodi:role="line"
               y="0"
               x="0 19.524975">RS</tspan>
          </text>
        </g>
      </g>
      <path
         inkscape:connector-curvature="0"
         id="path4284"
         style="fill:none;stroke:#000000;stroke-width:3;stroke-linecap:butt;stroke-linejoin:miter;stroke-miterlimit:10;stroke-dasharray:none;stroke-opacity:1"
         d="m 122.36,779.59 -80.987,0" />
      <path
         inkscape:connector-curvature="0"
         id="path4286"
         style="fill:#000000;fill-opacity:1;fill-rule:evenodd;stroke:none"
         d="m 57.067,772.33 -19.667,7.23 19.667,7.24 c -3.142,-4.27 -3.124,-10.12 0,-14.47 z" />
      <g
         id="g4288">
        <g
           clip-path="url(#clipPath4292)"
           id="g4290">
          <text
             id="text4296"
             style="font-variant:normal;font-weight:normal;font-size:36.02500153px;font-family:Calibri;-inkscape-font-specification:Calibri;writing-mode:lr-tb;fill:#000000;fill-opacity:1;fill-rule:nonzero;stroke:none"
             transform="matrix(1,0,0,-1,1804.83,751.58)">
            <tspan
               id="tspan4298"
               sodipodi:role="line"
               y="0"
               x="0 22.479601 40.4921">DPS</tspan>
          </text>
        </g>
      </g>
      <path
         inkscape:connector-curvature="0"
         id="path4300"
         style="fill:none;stroke:#000000;stroke-width:3;stroke-linecap:butt;stroke-linejoin:miter;stroke-miterlimit:10;stroke-dasharray:none;stroke-opacity:1"
         d="m 1785.68,731.11 90.01,0" />
      <path
         inkscape:connector-curvature="0"
         id="path4302"
         style="fill:#000000;fill-opacity:1;fill-rule:evenodd;stroke:none"
         d="m 1859.99,738.37 19.67,-7.23 -19.67,-7.24 c 3.15,4.27 3.13,10.11 0,14.47 z" />
      <path
         inkscape:connector-curvature="0"
         id="path4304"
         style="fill:#ffffff;fill-opacity:1;fill-rule:evenodd;stroke:none"
         d="m 1713.47,378.16 50.096,0 0,286.27 -50.096,0 0,-286.27 z" />
      <path
         inkscape:connector-curvature="0"
         id="path4306"
         style="fill:none;stroke:#000000;stroke-width:3;stroke-linecap:butt;stroke-linejoin:miter;stroke-miterlimit:10;stroke-dasharray:none;stroke-opacity:1"
         d="m 1713.47,378.16 50.096,0 0,286.27 -50.096,0 0,-286.27 z" />
      <path
         inkscape:connector-curvature="0"
         id="path4308"
         style="fill:none;stroke:#000000;stroke-width:3;stroke-linecap:round;stroke-linejoin:round;stroke-miterlimit:10;stroke-dasharray:none;stroke-opacity:1"
         d="m 1301.57,521.02 0.56,0" />
      <path
         inkscape:connector-curvature="0"
         id="path4310"
         style="fill:#ffffff;fill-opacity:1;fill-rule:evenodd;stroke:none"
         d="m 886.88,553.18 0,-62.84 c 4.22,-7.14 8.67,-10.2 13.91,0 l 0,62.84 c -4.12,8.73 -8.76,8.73 -13.91,0 z" />
      <path
         inkscape:connector-curvature="0"
         id="path4312"
         style="fill:none;stroke:#000000;stroke-width:3;stroke-linecap:butt;stroke-linejoin:miter;stroke-miterlimit:2;stroke-dasharray:none;stroke-opacity:1"
         d="m 886.88,553.18 0,-62.84 c 4.22,-7.14 8.67,-10.2 13.91,0 l 0,62.84 c -4.12,8.73 -8.76,8.73 -13.91,0 z" />
      <path
         inkscape:connector-curvature="0"
         id="path4314"
         style="fill:#ffffff;fill-opacity:1;fill-rule:evenodd;stroke:none"
         d="m 901.36,553.18 0,-62.84 c 4.22,-7.14 8.68,-10.2 13.92,0 l 0,62.84 c -4.12,8.73 -8.76,8.73 -13.92,0 z" />
      <path
         inkscape:connector-curvature="0"
         id="path4316"
         style="fill:none;stroke:#000000;stroke-width:3;stroke-linecap:butt;stroke-linejoin:miter;stroke-miterlimit:2;stroke-dasharray:none;stroke-opacity:1"
         d="m 901.36,553.18 0,-62.84 c 4.22,-7.14 8.68,-10.2 13.92,0 l 0,62.84 c -4.12,8.73 -8.76,8.73 -13.92,0 z" />
      <path
         inkscape:connector-curvature="0"
         id="path4318"
         style="fill:#ffffff;fill-opacity:1;fill-rule:evenodd;stroke:none"
         d="m 915.51,464.04 57.253,0 0,114.51 -57.253,0 0,-114.51 z" />
      <path
         inkscape:connector-curvature="0"
         id="path4320"
         style="fill:none;stroke:#000000;stroke-width:3;stroke-linecap:butt;stroke-linejoin:miter;stroke-miterlimit:2;stroke-dasharray:none;stroke-opacity:1"
         d="m 915.51,464.04 57.253,0 0,114.51 -57.253,0 0,-114.51 z" />
      <path
         inkscape:connector-curvature="0"
         id="path4322"
         style="fill:#ffffff;fill-opacity:1;fill-rule:evenodd;stroke:none"
         d="m 972.99,553.18 0,-62.84 c 4.21,-7.14 8.67,-10.2 13.91,0 l 0,62.84 c -4.12,8.73 -8.76,8.73 -13.91,0 z" />
      <path
         inkscape:connector-curvature="0"
         id="path4324"
         style="fill:none;stroke:#000000;stroke-width:3;stroke-linecap:butt;stroke-linejoin:miter;stroke-miterlimit:2;stroke-dasharray:none;stroke-opacity:1"
         d="m 972.99,553.18 0,-62.84 c 4.21,-7.14 8.67,-10.2 13.91,0 l 0,62.84 c -4.12,8.73 -8.76,8.73 -13.91,0 z" />
      <path
         inkscape:connector-curvature="0"
         id="path4326"
         style="fill:#ffffff;fill-opacity:1;fill-rule:evenodd;stroke:none"
         d="m 987.47,553.18 0,-62.84 c 4.22,-7.14 8.67,-10.2 13.92,0 l 0,62.84 c -4.13,8.73 -8.77,8.73 -13.92,0 z" />
      <path
         inkscape:connector-curvature="0"
         id="path4328"
         style="fill:none;stroke:#000000;stroke-width:3;stroke-linecap:butt;stroke-linejoin:miter;stroke-miterlimit:2;stroke-dasharray:none;stroke-opacity:1"
         d="m 987.47,553.18 0,-62.84 c 4.22,-7.14 8.67,-10.2 13.92,0 l 0,62.84 c -4.13,8.73 -8.77,8.73 -13.92,0 z" />
      <path
         inkscape:connector-curvature="0"
         id="path4330"
         style="fill:none;stroke:#000000;stroke-width:3;stroke-linecap:round;stroke-linejoin:round;stroke-miterlimit:2;stroke-dasharray:none;stroke-opacity:1"
         d="m 945,657 0,-78.45" />
      <path
         inkscape:connector-curvature="0"
         id="path4332"
         style="fill:none;stroke:#000000;stroke-width:3;stroke-linecap:round;stroke-linejoin:round;stroke-miterlimit:2;stroke-dasharray:none;stroke-opacity:1"
         d="m 940.56,587.43 4.44,-8.88 4.44,8.88" />
      <g
         id="g4334">
        <g
           clip-path="url(#clipPath4338)"
           id="g4336">
          <text
             id="text4342"
             style="font-variant:normal;font-weight:normal;font-size:36.02500153px;font-family:Calibri;-inkscape-font-specification:Calibri;writing-mode:lr-tb;fill:#000000;fill-opacity:1;fill-rule:nonzero;stroke:none"
             transform="matrix(1,0,0,-1,912.13,724.55)">
            <tspan
               id="tspan4344"
               y="0"
               x="0">T</tspan>
          </text>
        </g>
      </g>
      <g
         id="g4346">
        <g
           clip-path="url(#clipPath4350)"
           id="g4348">
          <text
             id="text4354"
             style="font-variant:normal;font-weight:normal;font-size:23.27499962px;font-family:Calibri;-inkscape-font-specification:Calibri;writing-mode:lr-tb;fill:#000000;fill-opacity:1;fill-rule:nonzero;stroke:none"
             transform="matrix(1,0,0,-1,929.68,719.53)">
            <tspan
               id="tspan4356"
               y="0"
               x="0">2</tspan>
          </text>
        </g>
      </g>
      <g
         id="g4358">
        <g
           clip-path="url(#clipPath4362)"
           id="g4360" />
      </g>
      <g
         id="g4366">
        <g
           clip-path="url(#clipPath4370)"
           id="g4368">
          <text
             id="text4374"
             style="font-variant:normal;font-weight:normal;font-size:36.02500153px;font-family:Calibri;-inkscape-font-specification:Calibri;writing-mode:lr-tb;fill:#000000;fill-opacity:1;fill-rule:nonzero;stroke:none"
             transform="matrix(1,0,0,-1,949.7,724.55)">
            <tspan
               id="tspan4376"
               sodipodi:role="line"
               y="0"
               x="0 8.2500496">in</tspan>
          </text>
        </g>
      </g>
      <g
         id="g4378">
        <g
           clip-path="url(#clipPath4382)"
           id="g4380">
          <path
             inkscape:connector-curvature="0"
             id="path4386"
             style="fill:none;stroke:#000000;stroke-width:3;stroke-linecap:round;stroke-linejoin:round;stroke-miterlimit:2;stroke-dasharray:none;stroke-opacity:1"
             d="m 158.25,470.71 0,95.59" />
        </g>
      </g>
    </g>
  </g>
</svg>
