<?xml version="1.0" encoding="UTF-8" standalone="no"?>
<!-- Created with Inkscape (http://www.inkscape.org/) -->

<svg
   xmlns:dc="http://purl.org/dc/elements/1.1/"
   xmlns:cc="http://creativecommons.org/ns#"
   xmlns:rdf="http://www.w3.org/1999/02/22-rdf-syntax-ns#"
   xmlns:svg="http://www.w3.org/2000/svg"
   xmlns="http://www.w3.org/2000/svg"
   xmlns:sodipodi="http://sodipodi.sourceforge.net/DTD/sodipodi-0.dtd"
   xmlns:inkscape="http://www.inkscape.org/namespaces/inkscape"
   width="124.70694mm"
   height="70.152382mm"
   viewBox="0 0 441.87498 248.57144"
   id="svg2"
   version="1.1"
   inkscape:version="0.91 r13725"
   sodipodi:docname="relay_red.svg">
  <defs
     id="defs4" />
  <sodipodi:namedview
     id="base"
     pagecolor="#ffffff"
     bordercolor="#666666"
     borderopacity="0"
     inkscape:pageopacity="0.0"
     inkscape:pageshadow="2"
     inkscape:zoom="0.98994949"
     inkscape:cx="148.10905"
     inkscape:cy="69.083009"
     inkscape:document-units="px"
     inkscape:current-layer="layer1"
     showgrid="false"
     fit-margin-top="0"
     fit-margin-left="0"
     fit-margin-right="0"
     fit-margin-bottom="0"
     inkscape:window-width="1680"
     inkscape:window-height="975"
     inkscape:window-x="-9"
     inkscape:window-y="-9"
     inkscape:window-maximized="1" />
  <metadata
     id="metadata7">
    <rdf:RDF>
      <cc:Work
         rdf:about="">
        <dc:format>image/svg+xml</dc:format>
        <dc:type
           rdf:resource="http://purl.org/dc/dcmitype/StillImage" />
        <dc:title></dc:title>
      </cc:Work>
    </rdf:RDF>
  </metadata>
  <g
     inkscape:groupmode="layer"
     id="layer2"
     inkscape:label="Ebene 2"
     transform="translate(-2.475586e-6,21.625532)">
    <rect
       style="opacity:1;fill:#ffffff;fill-opacity:1;stroke:none;stroke-width:14;stroke-miterlimit:4;stroke-dasharray:none;stroke-dashoffset:0;stroke-opacity:1"
       id="rect4134"
       width="440"
       height="248.57143"
       x="-3.3007814e-006"
       y="-21.625532"
       inkscape:export-filename="C:\Users\ntj\Hanson\Development\relay_inactive.png"
       inkscape:export-xdpi="90"
       inkscape:export-ydpi="90" />
  </g>
  <g
     inkscape:label="Ebene 1"
     inkscape:groupmode="layer"
     id="layer1"
     transform="translate(-624.73214,-674.45917)">
    <path
       style="fill:#000000"
       d="m 774.84375,896.01981 c -6.94347,-2.31673 -16.34637,-12.19926 -18.21699,-19.14621 l -1.54444,-5.73562 -65.1751,0 -65.1751,0 0,-3.50694 0,-3.50695 65.1751,0 65.1751,0 1.54444,-5.73562 c 0.95758,-3.55621 3.85579,-8.04696 7.62726,-11.81844 9.87305,-9.87305 21.8044,-11.68483 34.51488,-5.24108 26.9248,13.64992 18.29247,54.34134 -11.86797,55.94372 -3.93903,0.20927 -9.36476,-0.35451 -12.05718,-1.25286 z m 24.23561,-9.8298 c 6.76913,-5.16308 9.89483,-12.38755 9.07064,-20.96507 -1.16268,-12.10021 -9.07514,-19.5369 -21.72889,-20.42232 -6.76032,-0.47303 -8.88369,-0.0229 -12.96116,2.74807 -7.52816,5.11585 -11.25561,11.62523 -11.25561,19.65606 0,10.10536 5.26203,18.38393 14.0285,22.07054 6.08366,2.5584 17.46019,1.02107 22.84652,-3.08728 z m 96.24906,-62.73379 c -22.18718,-11.72682 -21.94152,-41.93696 0.43462,-53.44671 6.47766,-3.33195 19.19812,-3.54364 25.76231,-0.42872 6.64127,3.15149 14.19149,11.97967 16.00481,18.7138 l 1.53232,5.69061 63.77232,0 c 62.8371,0 63.7723,0.0411 63.7723,2.80556 0,2.76441 -0.9352,2.80556 -63.7723,2.80556 l -63.77232,0 -1.51588,5.62953 c -1.8608,6.91048 -8.46896,14.66868 -15.58758,18.30033 -7.04867,3.59596 -19.75783,3.56257 -26.6306,-0.07 z m 26.42073,-7.23023 c 13.57355,-8.38892 13.23982,-30.6878 -0.58718,-39.23335 -15.39199,-9.51278 -35.51318,1.70452 -35.51318,19.79812 0,18.62757 19.99212,29.39066 36.10036,19.43523 z M 770.26379,751.97686 c -6.82045,-4.3254 -12.84443,-12.11134 -14.43864,-18.66179 l -0.93884,-3.85764 -65.0771,0 -65.07709,0 0,-3.50695 0,-3.50694 65.1751,0 65.1751,0 1.54444,-5.73563 c 2.14201,-7.95482 11.50846,-17.051 20.00807,-19.43075 26.35978,-7.38028 48.14305,20.98146 33.95851,44.21388 -8.52499,13.96285 -27.19321,18.81664 -40.32955,10.48582 z m 24.76597,-4.83587 c 2.57386,-1.07543 6.4989,-4.34035 8.72231,-7.25539 3.44307,-4.5141 4.04255,-6.58058 4.04255,-13.93512 0,-7.35454 -0.59948,-9.42102 -4.04255,-13.93512 -13.54762,-17.76184 -41.54773,-8.3706 -41.54773,13.93512 0,17.02447 16.81563,27.87983 32.82542,21.19051 z"
       id="path4134"
       inkscape:connector-curvature="0"
       inkscape:export-filename="C:\Users\ntj\Hanson\Development\relay_inactive.png"
       inkscape:export-xdpi="90"
       inkscape:export-ydpi="90" />
    <path
       style="fill:none;fill-rule:evenodd;stroke:#000000;stroke-width:7.00000048;stroke-linecap:butt;stroke-linejoin:miter;stroke-miterlimit:4;stroke-dasharray:none;stroke-opacity:1"
       d="m 811.88457,731.67528 c 71.25113,49.29871 72.24076,49.29871 72.24076,49.29871"
       id="path4136"
       inkscape:connector-curvature="0" />
  </g>
</svg>
