<?xml version="1.0" encoding="UTF-8" standalone="no"?>
<!-- Created with Inkscape (http://www.inkscape.org/) -->

<svg
   xmlns:dc="http://purl.org/dc/elements/1.1/"
   xmlns:cc="http://creativecommons.org/ns#"
   xmlns:rdf="http://www.w3.org/1999/02/22-rdf-syntax-ns#"
   xmlns:svg="http://www.w3.org/2000/svg"
   xmlns="http://www.w3.org/2000/svg"
   xmlns:sodipodi="http://sodipodi.sourceforge.net/DTD/sodipodi-0.dtd"
   xmlns:inkscape="http://www.inkscape.org/namespaces/inkscape"
   width="125.18384mm"
   height="57.008888mm"
   viewBox="0 0 443.56478 201.99999"
   id="svg2"
   version="1.1"
   inkscape:version="0.91 r13725"
   sodipodi:docname="relay_red.svg">
  <defs
     id="defs4" />
  <sodipodi:namedview
     id="base"
     pagecolor="#ffffff"
     bordercolor="#666666"
     borderopacity="0"
     inkscape:pageopacity="0.0"
     inkscape:pageshadow="2"
     inkscape:zoom="0.35"
     inkscape:cx="-405.72758"
     inkscape:cy="152.89726"
     inkscape:document-units="px"
     inkscape:current-layer="layer2"
     showgrid="false"
     fit-margin-top="0"
     fit-margin-left="0"
     fit-margin-right="0"
     fit-margin-bottom="0"
     inkscape:window-width="1680"
     inkscape:window-height="975"
     inkscape:window-x="-9"
     inkscape:window-y="-9"
     inkscape:window-maximized="1" />
  <metadata
     id="metadata7">
    <rdf:RDF>
      <cc:Work
         rdf:about="">
        <dc:format>image/svg+xml</dc:format>
        <dc:type
           rdf:resource="http://purl.org/dc/dcmitype/StillImage" />
        <dc:title></dc:title>
      </cc:Work>
    </rdf:RDF>
  </metadata>
  <g
     inkscape:groupmode="layer"
     id="layer2"
     inkscape:label="Ebene 2">
    <rect
       style="opacity:1;fill:#ffffff;fill-opacity:1;stroke:none;stroke-width:14;stroke-miterlimit:4;stroke-dasharray:none;stroke-dashoffset:0;stroke-opacity:1"
       id="rect4134"
       width="448.57144"
       height="260"
       x="-5.7142868"
       y="-29.428574" />
  </g>
  <g
     inkscape:label="Ebene 1"
     inkscape:groupmode="layer"
     id="layer1"
     transform="translate(-595.20092,-483.25945)">
    <path
       style="fill:#000000"
       d="m 745.88658,683.95797 c -6.97002,-2.32559 -16.40888,-12.24589 -18.28665,-19.21942 l -1.55035,-5.75755 -65.42432,0 -65.42434,0 0,-3.52035 0,-3.52036 65.42434,0 65.42432,0 1.55035,-5.75755 c 0.96125,-3.56982 3.87054,-8.07773 7.65644,-11.86364 9.91079,-9.9108 21.88776,-11.72951 34.64685,-5.26111 27.02777,13.7021 18.36242,54.54914 -11.91334,56.15764 -3.9541,0.21007 -9.40058,-0.35586 -12.1033,-1.25766 z m 24.32828,-9.86737 c 6.79503,-5.18284 9.93267,-12.43492 9.10534,-21.04526 -1.16713,-12.14647 -9.10986,-19.61159 -21.81199,-20.5004 -6.78616,-0.47485 -8.91766,-0.023 -13.01072,2.75858 -7.55694,5.1354 -11.29865,11.66967 -11.29865,19.73121 0,10.144 5.28215,18.45424 14.08214,22.15494 6.10692,2.56819 17.52696,1.02498 22.93388,-3.09907 z m 96.61713,-62.97369 c -10.19841,-5.39028 -16.7293,-16.20212 -16.7495,-27.72865 -0.006,-3.03902 -0.80106,-4.72308 -2.47212,-5.23186 -1.35533,-0.41267 -23.37515,-6.81419 -48.93292,-14.22563 -60.82405,-17.63822 -55.32747,-15.68561 -54.62051,-19.40342 0.44523,-2.34139 -0.511,-3.77748 -3.80904,-5.72049 -5.34673,-3.14999 -12.16259,-12.255 -13.40362,-17.90532 l -0.90992,-4.14288 -65.36672,0 -65.36672,0 0,-3.52036 0,-3.52035 65.42434,0 65.42432,0 1.55035,-5.75756 c 2.1502,-7.98525 11.55246,-17.11621 20.08458,-19.50505 26.48466,-7.41526 48.39225,21.15095 34.03754,44.38295 -4.72651,7.64949 -12.44491,12.77004 -21.67866,14.38208 -5.20515,0.90872 -1.3766,2.25722 43.21617,15.22162 42.94694,12.48588 49.07941,13.94888 50.17187,11.96921 2.46283,-4.463 8.71139,-10.30897 13.83685,-12.94539 6.50243,-3.34469 19.27152,-3.55718 25.86082,-0.43036 6.66666,3.16354 14.24577,12.02548 16.066,18.78537 l 1.53819,5.71237 64.01618,0 c 63.07743,0 64.01623,0.0413 64.01623,2.81628 0,2.77498 -0.9388,2.81629 -64.01623,2.81629 l -64.01618,0 -1.52168,5.65106 c -1.86791,6.9369 -8.50135,14.72478 -15.64718,18.37031 -7.07562,3.60971 -19.83339,3.5762 -26.73244,-0.0702 z m 26.52176,-7.25789 c 13.62547,-8.42099 13.29044,-30.80514 -0.58942,-39.38338 -15.45086,-9.54916 -35.64899,1.71104 -35.64899,19.87383 0,18.69881 20.06857,29.50307 36.23841,19.50955 z M 766.14978,534.50984 c 2.5837,-1.07953 6.52377,-4.35695 8.75566,-7.28312 3.45625,-4.53138 4.05802,-6.60576 4.05802,-13.98842 0,-7.38266 -0.60177,-9.45704 -4.05802,-13.98842 -13.59942,-17.82976 -41.7066,-8.4026 -41.7066,13.98842 0,17.08957 16.87994,27.98644 32.95094,21.27154 z"
       id="path4136"
       inkscape:connector-curvature="0" />
  </g>
</svg>
