<?xml version="1.0" encoding="UTF-8" standalone="no"?>
<!-- Created with Inkscape (http://www.inkscape.org/) -->

<svg
   xmlns:dc="http://purl.org/dc/elements/1.1/"
   xmlns:cc="http://creativecommons.org/ns#"
   xmlns:rdf="http://www.w3.org/1999/02/22-rdf-syntax-ns#"
   xmlns:svg="http://www.w3.org/2000/svg"
   xmlns="http://www.w3.org/2000/svg"
   xmlns:sodipodi="http://sodipodi.sourceforge.net/DTD/sodipodi-0.dtd"
   xmlns:inkscape="http://www.inkscape.org/namespaces/inkscape"
   width="282.22223mm"
   height="61.242222mm"
   viewBox="0 0 1000 217.00001"
   id="svg2"
   version="1.1"
   inkscape:version="0.91 r13725"
   sodipodi:docname="switch_red.svg">
  <defs
     id="defs4" />
  <sodipodi:namedview
     id="base"
     pagecolor="#ffffff"
     bordercolor="#666666"
     borderopacity="0"
     inkscape:pageopacity="1"
     inkscape:pageshadow="2"
     inkscape:zoom="0.35"
     inkscape:cx="1114.5778"
     inkscape:cy="-50.740919"
     inkscape:document-units="px"
     inkscape:current-layer="layer2"
     showgrid="false"
     fit-margin-top="0"
     fit-margin-left="0"
     fit-margin-right="0"
     fit-margin-bottom="0"
     inkscape:window-width="1680"
     inkscape:window-height="975"
     inkscape:window-x="-9"
     inkscape:window-y="-9"
     inkscape:window-maximized="1" />
  <metadata
     id="metadata7">
    <rdf:RDF>
      <cc:Work
         rdf:about="">
        <dc:format>image/svg+xml</dc:format>
        <dc:type
           rdf:resource="http://purl.org/dc/dcmitype/StillImage" />
        <dc:title />
      </cc:Work>
    </rdf:RDF>
  </metadata>
  <g
     inkscape:groupmode="layer"
     id="layer2"
     inkscape:label="Ebene 2"
     transform="translate(2.8571289,0.19727124)">
    <rect
       style="opacity:1;fill:#ffffff;fill-opacity:1;stroke:none;stroke-width:14;stroke-miterlimit:4;stroke-dasharray:none;stroke-dashoffset:0;stroke-opacity:1"
       id="rect4134"
       width="1000.0002"
       height="285.51703"
       x="-2.8571899"
       y="-34.428547" />
  </g>
  <g
     inkscape:label="Ebene 1"
     inkscape:groupmode="layer"
     id="layer1"
     transform="translate(-261.11405,-264.62129)">
    <path
       style="fill:#000000"
       d="m 591.72294,507.92577 c -15.82455,-8.85017 -31.11511,-30.52099 -34.06325,-48.27674 l -2.01413,-12.13061 -147.26577,0 c -144.90302,0 -147.26578,-0.1145 -147.26578,-7.13795 0,-7.0093 2.63773,-7.15476 146.35071,-8.0705 l 146.3507,-0.93254 5.89065,-17.53531 c 7.42004,-22.08796 16.68493,-33.53444 34.43996,-42.54942 25.4485,-12.92125 57.60127,-6.98624 77.22918,14.25556 21.09429,22.82876 24.47623,70.43803 6.99546,98.47895 -18.88191,30.28846 -56.61404,40.69547 -86.64773,23.89856 z m 51.93084,-13.35003 c 22.95864,-11.9118 35.39553,-36.95153 31.80185,-64.02808 -2.75984,-20.79401 -23.27027,-45.82589 -40.53202,-49.46719 -27.9773,-5.9017 -54.54068,12.73791 -62.85922,44.10856 -7.22692,27.25401 5.5695,56.75806 30.07002,69.33076 16.28498,8.35681 25.49651,8.36923 41.51937,0.0559 z m 231.74607,16.11619 c -12.90233,-6.36257 -31.69567,-30.55743 -36.49313,-46.98185 -3.41954,-11.70685 -3.24514,-26.81363 0.61446,-53.23957 0.74234,-5.08264 -23.85533,-24.86703 -109.2584,-87.87871 -60.61903,-44.72563 -110.2619,-82.22139 -110.31748,-83.32394 -0.0555,-1.10251 1.68466,-4.58975 3.8672,-7.74939 3.49297,-5.05667 17.22811,4.08027 114.67162,76.28247 l 110.70346,82.02723 10.90047,-9.39401 c 38.16893,-32.89364 94.70154,-13.24704 107.66127,37.41519 l 3.4606,13.52808 144.95218,0.93291 c 142.3142,0.91592 144.9521,1.06279 144.9521,8.0705 0,7.02101 -2.3606,7.13758 -144.544,7.13758 -134.87541,0 -144.66175,0.41988 -146.30101,6.27705 -8.62614,30.82095 -20.03494,46.87763 -40.00547,56.30319 -14.26367,6.73207 -41.81127,7.02998 -54.86387,0.59327 z m 42.998,-12.94204 c 12.76447,-4.00657 29.57414,-21.99687 34.58514,-37.01416 12.38733,-37.12352 -14.44247,-81.36814 -49.34134,-81.36814 -13.89247,0 -36.68047,14.38316 -44.88287,28.3288 -11.12873,18.92108 -10.0942,48.52986 2.37527,67.97895 5.24907,8.18715 9.89187,14.91001 10.31747,14.93973 0.4256,0.0297 6.488,2.37999 13.47213,5.22287 15.35173,6.24891 18.99427,6.45697 33.4742,1.91195 z"
       id="path4134"
       inkscape:connector-curvature="0" />
  </g>
</svg>
