<?xml version="1.0" encoding="UTF-8" standalone="no"?>
<!-- Created with Inkscape (http://www.inkscape.org/) -->

<svg
   xmlns:dc="http://purl.org/dc/elements/1.1/"
   xmlns:cc="http://creativecommons.org/ns#"
   xmlns:rdf="http://www.w3.org/1999/02/22-rdf-syntax-ns#"
   xmlns:svg="http://www.w3.org/2000/svg"
   xmlns="http://www.w3.org/2000/svg"
   xmlns:sodipodi="http://sodipodi.sourceforge.net/DTD/sodipodi-0.dtd"
   xmlns:inkscape="http://www.inkscape.org/namespaces/inkscape"
   width="283.02859mm"
   height="61.242222mm"
   viewBox="0 0 1002.8572 217.00001"
   id="svg2"
   version="1.1"
   inkscape:version="0.91 r13725"
   sodipodi:docname="switch_green.svg">
  <defs
     id="defs4" />
  <sodipodi:namedview
     id="base"
     pagecolor="#ffffff"
     bordercolor="#666666"
     borderopacity="0"
     inkscape:pageopacity="1"
     inkscape:pageshadow="2"
     inkscape:zoom="0.35"
     inkscape:cx="289.99992"
     inkscape:cy="158.93764"
     inkscape:document-units="px"
     inkscape:current-layer="layer2"
     showgrid="false"
     fit-margin-top="0"
     fit-margin-left="0"
     fit-margin-right="0"
     fit-margin-bottom="0"
     inkscape:window-width="1680"
     inkscape:window-height="975"
     inkscape:window-x="-9"
     inkscape:window-y="-9"
     inkscape:window-maximized="1" />
  <metadata
     id="metadata7">
    <rdf:RDF>
      <cc:Work
         rdf:about="">
        <dc:format>image/svg+xml</dc:format>
        <dc:type
           rdf:resource="http://purl.org/dc/dcmitype/StillImage" />
        <dc:title />
      </cc:Work>
    </rdf:RDF>
  </metadata>
  <g
     inkscape:groupmode="layer"
     id="layer2"
     inkscape:label="Ebene 2"
     transform="translate(2.8571253,95.511443)">
    <rect
       style="opacity:1;fill:#ffffff;fill-opacity:1;stroke:none;stroke-width:14;stroke-miterlimit:4;stroke-dasharray:none;stroke-dashoffset:0;stroke-opacity:1"
       id="rect4134"
       width="1000"
       height="154.14301"
       x="-2.8571863"
       y="-64.082947" />
  </g>
  <g
     inkscape:label="Ebene 1"
     inkscape:groupmode="layer"
     id="layer1"
     transform="translate(-290.31042,-360.01413)">
    <path
       style="fill:#000000"
       d="m 623.77644,537.5018 c -15.82454,-8.93336 -31.11511,-30.80785 -34.06325,-48.73045 l -2.01412,-12.24464 -147.26575,0 c -144.90301,0 -147.26577,-0.11558 -147.26577,-7.20502 0,-7.07519 2.63773,-7.222 146.35069,-8.14635 l 146.35069,-0.94131 5.91189,-17.76394 c 7.52899,-22.62298 19.26597,-36.53831 37.64099,-44.62707 13.18504,-5.80413 28.88184,-6.40032 168.50768,-6.40032 153.54562,0 154.0049,0.0224 167.31889,8.13763 16.13563,9.83514 29.87067,28.51662 34.55444,46.99848 l 3.46058,13.65522 144.9521,0.94167 c 142.3142,0.92454 144.9521,1.07279 144.9521,8.14636 0,7.08699 -2.3606,7.20465 -144.5441,7.20465 -134.8753,0 -144.6616,0.42383 -146.3008,6.33606 -11.84505,42.71991 -33.19877,62.45528 -67.57661,62.45528 -19.999,0 -30.89804,-4.72615 -44.34706,-19.2302 -26.63397,-28.72327 -30.04604,-79.97557 -7.21624,-108.39582 l 7.9981,-9.95665 -96.11424,0 -96.11427,0 7.94591,10.76982 c 18.31854,24.82881 19.93428,68.30528 3.52586,94.87343 -18.8819,30.57311 -56.61403,41.07794 -86.64771,24.12317 z m 51.93084,-13.4755 c 22.95863,-12.02376 35.39551,-37.29882 31.80184,-64.62984 -2.75984,-20.98942 -23.27027,-46.25656 -40.53201,-49.93209 -27.9773,-5.95718 -54.54067,12.85763 -62.85921,44.5231 -7.22692,27.51014 5.56949,57.29148 30.07,69.98235 16.28499,8.43535 25.49652,8.44788 41.51938,0.0565 z m 274.74404,3.20397 c 12.76439,-4.04422 29.57407,-22.20359 34.58506,-37.36202 12.38738,-37.47242 -14.44237,-82.13287 -49.34123,-82.13287 -13.89246,0 -36.68051,14.51835 -44.88286,28.59505 -11.12878,19.0989 -10.09423,48.98596 2.37523,68.61784 5.24901,8.26408 9.8919,15.05013 10.31747,15.08012 0.42551,0.03 6.488,2.40236 13.47215,5.27197 15.35172,6.30764 18.99427,6.51766 33.47418,1.92991 z"
       id="path4134"
       inkscape:connector-curvature="0" />
  </g>
</svg>
