<?xml version="1.0" encoding="UTF-8" standalone="no"?>
<!-- Created with Inkscape (http://www.inkscape.org/) -->

<svg
   xmlns:dc="http://purl.org/dc/elements/1.1/"
   xmlns:cc="http://creativecommons.org/ns#"
   xmlns:rdf="http://www.w3.org/1999/02/22-rdf-syntax-ns#"
   xmlns:svg="http://www.w3.org/2000/svg"
   xmlns="http://www.w3.org/2000/svg"
   xmlns:sodipodi="http://sodipodi.sourceforge.net/DTD/sodipodi-0.dtd"
   xmlns:inkscape="http://www.inkscape.org/namespaces/inkscape"
   width="283.02856mm"
   height="43.502579mm"
   viewBox="0 0 1002.8571 154.14301"
   id="svg2"
   version="1.1"
   inkscape:version="0.91 r13725"
   sodipodi:docname="switch_red.svg">
  <defs
     id="defs4" />
  <sodipodi:namedview
     id="base"
     pagecolor="#ffffff"
     bordercolor="#666666"
     borderopacity="0"
     inkscape:pageopacity="1"
     inkscape:pageshadow="2"
     inkscape:zoom="0.35"
     inkscape:cx="712.85709"
     inkscape:cy="-255.34802"
     inkscape:document-units="px"
     inkscape:current-layer="layer2"
     showgrid="false"
     fit-margin-top="0"
     fit-margin-left="0"
     fit-margin-right="0"
     fit-margin-bottom="0"
     inkscape:window-width="1680"
     inkscape:window-height="975"
     inkscape:window-x="-9"
     inkscape:window-y="-9"
     inkscape:window-maximized="1" />
  <metadata
     id="metadata7">
    <rdf:RDF>
      <cc:Work
         rdf:about="">
        <dc:format>image/svg+xml</dc:format>
        <dc:type
           rdf:resource="http://purl.org/dc/dcmitype/StillImage" />
        <dc:title></dc:title>
      </cc:Work>
    </rdf:RDF>
  </metadata>
  <g
     inkscape:groupmode="layer"
     id="layer2"
     inkscape:label="Ebene 2"
     transform="translate(2.8571265,27.567448)">
    <rect
       style="opacity:1;fill:#ffffff;fill-opacity:1;stroke:none;stroke-width:14;stroke-miterlimit:4;stroke-dasharray:none;stroke-dashoffset:0;stroke-opacity:1"
       id="rect4134"
       width="1000.0001"
       height="154.14301"
       x="-2.857157"
       y="-27.567444" />
    <path
       style="fill:none;fill-rule:evenodd;stroke:#000000;stroke-width:16.61470604;stroke-linecap:butt;stroke-linejoin:miter;stroke-miterlimit:4;stroke-dasharray:none;stroke-opacity:1"
       d="M 665.39692,-16.955091 C 380.31727,-149.89383 380.31727,-149.89383 380.31727,-149.89383"
       id="path4138"
       inkscape:connector-curvature="0" />
  </g>
  <g
     inkscape:label="Ebene 1"
     inkscape:groupmode="layer"
     id="layer1"
     transform="translate(-207.45324,-122.87116)">
    <path
       style="fill:#000000"
       d="m 540.91926,268.87459 c -15.82454,-8.99503 -31.1151,-31.02056 -34.06325,-49.06692 l -2.01412,-12.32918 -147.26575,0 c -144.90301,0 -147.26577,-0.11637 -147.26577,-7.25478 0,-7.12403 2.63773,-7.27186 146.35069,-8.2026 l 146.35069,-0.9478 5.89065,-17.82234 c 7.42003,-22.44949 16.68492,-34.08333 34.43995,-43.24585 25.4485,-13.13275 57.60126,-7.10061 77.22917,14.48888 21.09429,23.20244 24.47622,71.59097 6.99546,100.09086 -18.88191,30.78421 -56.61404,41.36158 -86.64772,24.28973 z m 51.93084,-13.56854 c 22.95863,-12.10678 35.39552,-37.55636 31.80184,-65.0761 -2.75984,-21.13435 -23.27027,-46.57595 -40.53201,-50.27686 -27.9773,-5.99831 -54.54067,12.9464 -62.85921,44.83053 -7.22692,27.70009 5.56949,57.68707 30.07,70.46556 16.28499,8.49359 25.49652,8.50621 41.51938,0.0568 z m 231.74605,16.25738 c -21.47378,-11.03927 -39.68253,-43.43924 -39.68253,-70.60961 0,-45.79885 28.70604,-78.44491 68.65622,-78.07963 29.03709,0.26552 55.44979,22.95814 63.37577,54.44961 l 3.46056,13.74951 144.95213,0.94817 c 142.3142,0.93092 144.9521,1.0802 144.9521,8.20261 0,7.13592 -2.3606,7.2544 -144.544,7.2544 -134.87537,0 -144.66162,0.42675 -146.30088,6.3798 -8.62619,31.32542 -20.035,47.64493 -40.00548,57.22475 -14.36771,6.89214 -41.92228,7.1334 -54.86389,0.48039 z m 42.99797,-13.03128 c 12.76445,-4.07215 29.57413,-22.35691 34.58512,-37.62001 12.38737,-37.73116 -14.44237,-82.69998 -49.34129,-82.69998 -13.89246,0 -36.68051,14.61859 -44.88286,28.7925 -11.12878,19.23078 -10.09417,49.32419 2.37523,69.09163 5.24908,8.32114 9.8919,15.15405 10.31747,15.18424 0.42557,0.0302 6.48806,2.41896 13.47215,5.30838 15.35172,6.3512 18.99426,6.56266 33.47418,1.94324 z"
       id="path4134"
       inkscape:connector-curvature="0" />
  </g>
</svg>
