<?xml version="1.0" encoding="UTF-8" standalone="no"?>
<!-- Created with Inkscape (http://www.inkscape.org/) -->

<svg
   xmlns:dc="http://purl.org/dc/elements/1.1/"
   xmlns:cc="http://creativecommons.org/ns#"
   xmlns:rdf="http://www.w3.org/1999/02/22-rdf-syntax-ns#"
   xmlns:svg="http://www.w3.org/2000/svg"
   xmlns="http://www.w3.org/2000/svg"
   xmlns:sodipodi="http://sodipodi.sourceforge.net/DTD/sodipodi-0.dtd"
   xmlns:inkscape="http://www.inkscape.org/namespaces/inkscape"
   width="26.48592mm"
   height="26.48592mm"
   viewBox="0 0 93.847748 93.847747"
   id="svg2"
   version="1.1"
   inkscape:version="0.91 r13725"
   sodipodi:docname="TMP_red.svg">
  <defs
     id="defs4" />
  <sodipodi:namedview
     id="base"
     pagecolor="#ffffff"
     bordercolor="#666666"
     borderopacity="0"
     inkscape:pageopacity="0.0"
     inkscape:pageshadow="2"
     inkscape:zoom="1.979899"
     inkscape:cx="-18.847144"
     inkscape:cy="26.084801"
     inkscape:document-units="px"
     inkscape:current-layer="layer1"
     showgrid="false"
     fit-margin-top="0"
     fit-margin-left="0"
     fit-margin-right="0"
     fit-margin-bottom="0"
     inkscape:window-width="1680"
     inkscape:window-height="975"
     inkscape:window-x="-9"
     inkscape:window-y="-9"
     inkscape:window-maximized="1" />
  <metadata
     id="metadata7">
    <rdf:RDF>
      <cc:Work
         rdf:about="">
        <dc:format>image/svg+xml</dc:format>
        <dc:type
           rdf:resource="http://purl.org/dc/dcmitype/StillImage" />
        <dc:title></dc:title>
      </cc:Work>
    </rdf:RDF>
  </metadata>
  <g
     inkscape:label="Ebene 1"
     inkscape:groupmode="layer"
     id="layer1"
     transform="translate(-787.56815,-828.45059)">
    <path
       style="fill:#ff0000;fill-opacity:1"
       d="m 796.68116,913.18535 c -0.92756,-0.9276 -0.75888,-8.566 0.20228,-9.1601 1.08129,-0.6682 9.62603,7.8765 8.95776,8.9578 -0.59403,0.9612 -8.23248,1.1298 -9.16004,0.2023 z m 29.04689,-0.3584 c -10.824,-2.7189 -21.0808,-11.4318 -26.21427,-22.2683 -2.70718,-5.7147 -2.98903,-7.1504 -2.98903,-15.2253 0,-8.0748 0.28185,-9.5105 2.98903,-15.22518 4.15397,-8.76882 10.28186,-15.01161 18.93155,-19.28652 6.68241,-3.30263 7.57485,-3.49659 16.08776,-3.49659 8.51291,0 9.40534,0.19396 16.08775,3.49659 8.64969,4.27491 14.77759,10.5177 18.93156,19.28652 2.70718,5.71468 2.98903,7.15038 2.98903,15.22518 0,8.0749 -0.28185,9.5106 -2.98903,15.2253 -6.44118,13.597 -18.73017,22.1551 -32.78094,22.8288 -4.07,0.1951 -9.03954,-0.057 -11.04341,-0.5605 z m -13.52546,-37.4988 c 0.27452,-7.9211 0.29269,-7.9737 2.85709,-8.2688 5.38904,-0.62 2.28015,-2.0492 -4.45777,-2.0492 -6.73792,0 -9.84681,1.4292 -4.45777,2.0492 2.55107,0.2936 2.58373,0.3835 2.83395,7.8048 0.28274,8.386 0.77936,10.6046 2.08216,9.3018 0.47633,-0.4763 0.99038,-4.4533 1.14234,-8.8378 z m 13.13451,0.9426 c 0.16303,-4.091 0.67337,-6.9379 1.21893,-6.7996 0.51616,0.1308 2.02975,3.5093 3.36353,7.5078 3.29207,9.8692 4.598,9.876 8.01088,0.042 1.48651,-4.2833 3.12507,-7.6874 3.64123,-7.5648 0.51616,0.1226 1.14963,3.4008 1.40772,7.2849 0.66592,10.022 2.29206,8.8476 2.61499,-1.8886 0.22991,-7.6437 0.0417,-9.0237 -1.30066,-9.5389 -2.56004,-0.9823 -4.48232,0.9599 -6.50104,6.5686 -1.04613,2.9064 -2.40896,5.7913 -3.02852,6.4109 -1.16728,1.1673 -1.63314,0.3307 -5.04521,-9.0599 -1.17226,-3.2262 -1.75423,-3.7539 -4.14041,-3.7539 l -2.77642,0 -0.2735,8.3721 c -0.15042,4.6046 -0.031,9.0039 0.26539,9.7763 1.10545,2.8807 2.26929,-0.4861 2.54309,-7.357 z m 30.0049,4.2243 c 0.25597,-2.3488 0.77353,-2.8668 3.12227,-3.1252 1.54848,-0.1704 3.76564,-1.1942 4.927,-2.2752 4.75825,-4.4288 0.96195,-10.3686 -6.32251,-9.8922 l -4.23536,0.2769 -0.2735,8.3721 c -0.15042,4.6046 -0.031,9.0039 0.26539,9.7763 0.76194,1.9856 2.14677,0.2618 2.51671,-3.1327 z m 0.20739,-6.4901 c -0.28037,-0.7306 -0.3727,-2.5255 -0.20516,-3.9885 0.22318,-1.9491 0.88283,-2.7421 2.46783,-2.9668 4.39588,-0.6231 6.44973,3.7526 3.15912,6.7306 -2.10334,1.9035 -4.73571,2.0126 -5.42179,0.2247 z m 7.70522,39.026 c -0.78244,-1.266 8.00548,-9.7922 9.03336,-8.7644 0.46369,0.4637 0.71041,2.6953 0.54827,4.9592 l -0.29481,4.116 -4.37275,0.2826 c -2.40501,0.1554 -4.61634,-0.1116 -4.91407,-0.5934 z m -67.01353,-70.77889 0.28367,-4.927 4.927,-0.28367 c 3.20718,-0.18464 4.92701,0.0869 4.92701,0.77795 0,1.38219 -7.97754,9.35973 -9.35973,9.35973 -0.69104,0 -0.96259,-1.71983 -0.77795,-4.92701 z m 70.79297,0.58038 c -4.99045,-4.99045 -4.69133,-6.23786 1.39134,-5.80219 l 4.11604,0.29481 0.29481,4.11603 c 0.43567,6.08267 -0.81174,6.3818 -5.80219,1.39135 z"
       id="path4153"
       inkscape:connector-curvature="0" />
    <path
       style="fill:#000000"
       d="m 787.56815,875.37447 0,-46.92388 46.92388,0 46.92387,0 0,46.92388 0,46.92387 -46.92387,0 -46.92388,0 0,-46.92387 z m 16.62714,35.65477 c -1.31754,-1.03638 -3.48607,-3.18036 -4.81895,-4.76439 l -2.42341,-2.88007 0,4.7644 0,4.76439 4.81895,0 4.81894,0 -2.39553,-1.88433 z m 45.77222,-1.72742 c 7.93555,-3.71349 14.74728,-10.55748 18.5977,-18.68577 2.7157,-5.73288 2.99668,-7.16201 2.99668,-15.24158 0,-8.07958 -0.28098,-9.5087 -2.99668,-15.24158 -3.87855,-8.18768 -10.64392,-14.95305 -18.8316,-18.8316 -5.73288,-2.7157 -7.16201,-2.99669 -15.24158,-2.99669 -8.07958,0 -9.5087,0.28099 -15.24158,2.99669 -8.18768,3.87855 -14.95305,10.64392 -18.8316,18.8316 -2.7157,5.73288 -2.99669,7.162 -2.99669,15.24158 0,8.07957 0.28099,9.5087 2.99669,15.24158 4.89764,10.339 14.80215,18.66357 25.38843,21.33853 6.64301,1.67857 17.43704,0.4934 24.16023,-2.65276 z m -41.75285,-32.51964 0,-8.91553 -3.28468,0 c -2.65901,0 -3.28467,-0.35752 -3.28467,-1.87696 0,-1.74524 0.62566,-1.87695 8.91554,-1.87695 8.28988,0 8.91554,0.13171 8.91554,1.87695 0,1.51944 -0.62566,1.87696 -3.28467,1.87696 l -3.28468,0 0,8.91553 c 0,8.88426 -0.008,8.91554 -2.34619,8.91554 -2.33796,0 -2.34619,-0.0313 -2.34619,-8.91554 z m 13.13868,-1.93091 0,-10.84645 3.91446,0.28858 3.91445,0.28858 2.49996,7.50782 2.49995,7.50782 2.15681,-6.56935 c 2.69299,-8.20247 3.26752,-8.91553 7.18351,-8.91553 l 3.16976,0 0,10.79249 0,10.79249 -2.3462,0 c -2.32756,0 -2.34685,-0.0689 -2.42877,-8.68092 l -0.0826,-8.68091 -2.93049,8.68091 c -2.53096,7.49741 -3.21745,8.68092 -5.03528,8.68092 -1.8257,0 -2.47893,-1.15111 -4.92626,-8.68092 l -2.82147,-8.68091 -0.0377,8.68091 c -0.0375,8.62393 -0.0531,8.68092 -2.38392,8.68092 l -2.3462,0 0,-10.84645 z m 30.03128,0.054 0,-10.79249 5.03507,0 c 6.2796,0 9.98057,2.4771 9.98057,6.68011 0,3.72216 -3.70873,7.39705 -7.46516,7.39705 -2.70879,0 -2.85809,0.1961 -2.85809,3.75391 0,3.37852 -0.23462,3.75391 -2.34619,3.75391 l -2.3462,0 0,-10.79249 z m 9.67291,-2.45325 c 1.41848,-2.26402 0.0998,-4.58533 -2.60487,-4.58533 -2.09819,0 -2.37565,0.39124 -2.37565,3.34994 0,2.89425 0.2742,3.30915 2.01573,3.05005 1.10865,-0.16494 2.44281,-0.98154 2.96479,-1.81466 z m 10.9736,35.64264 0,-4.81895 -1.88433,2.39553 c -1.03638,1.31755 -3.18036,3.48608 -4.76439,4.81895 l -2.88007,2.42342 4.7644,0 4.76439,0 0,-4.81895 z m -68.20742,-67.88693 2.98323,-2.35151 -4.92701,-0.0104 -4.927,-0.0104 0.0297,4.927 0.0297,4.92701 1.91404,-2.56509 c 1.05273,-1.4108 3.2565,-3.62327 4.89728,-4.9166 z m 68.20742,2.32006 0,-4.69238 -4.57143,0 -4.57142,0 4.33681,4.55991 c 2.38524,2.50795 4.44238,4.61953 4.57142,4.69239 0.12904,0.0729 0.23462,-1.9791 0.23462,-4.55992 z"
       id="path4147"
       inkscape:connector-curvature="0" />
  </g>
</svg>
