<?xml version="1.0" encoding="UTF-8" standalone="no"?>
<!-- Created with Inkscape (http://www.inkscape.org/) -->

<svg
   xmlns:dc="http://purl.org/dc/elements/1.1/"
   xmlns:cc="http://creativecommons.org/ns#"
   xmlns:rdf="http://www.w3.org/1999/02/22-rdf-syntax-ns#"
   xmlns:svg="http://www.w3.org/2000/svg"
   xmlns="http://www.w3.org/2000/svg"
   xmlns:sodipodi="http://sodipodi.sourceforge.net/DTD/sodipodi-0.dtd"
   xmlns:inkscape="http://www.inkscape.org/namespaces/inkscape"
   width="25.658602mm"
   height="60.129822mm"
   viewBox="0 0 90.916305 213.05842"
   id="svg2"
   version="1.1"
   inkscape:version="0.91 r13725"
   sodipodi:docname="TMP_green.svg">
  <defs
     id="defs4" />
  <sodipodi:namedview
     id="base"
     pagecolor="#ffffff"
     bordercolor="#666666"
     borderopacity="0"
     inkscape:pageopacity="0.0"
     inkscape:pageshadow="2"
     inkscape:zoom="1.979899"
     inkscape:cx="70.945171"
     inkscape:cy="137.53436"
     inkscape:document-units="px"
     inkscape:current-layer="layer1"
     showgrid="false"
     fit-margin-top="0"
     fit-margin-left="0"
     fit-margin-right="0"
     fit-margin-bottom="0"
     inkscape:window-width="1680"
     inkscape:window-height="975"
     inkscape:window-x="-9"
     inkscape:window-y="-9"
     inkscape:window-maximized="1" />
  <metadata
     id="metadata7">
    <rdf:RDF>
      <cc:Work
         rdf:about="">
        <dc:format>image/svg+xml</dc:format>
        <dc:type
           rdf:resource="http://purl.org/dc/dcmitype/StillImage" />
        <dc:title></dc:title>
      </cc:Work>
    </rdf:RDF>
  </metadata>
  <g
     inkscape:label="Ebene 1"
     inkscape:groupmode="layer"
     id="layer1"
     transform="translate(-576.37233,-758.07186)">
    <g
       id="g4187"
       transform="translate(-96.226618,-31.314725)"
       style="fill:#00e800;fill-opacity:0.69732941;stroke:none;stroke-opacity:1">
      <path
         style="fill:#00e800;fill-opacity:0.69732941;stroke:none;stroke-opacity:1"
         d="m 673.77879,1001.0097 c -1.14134,-1.14135 -0.73997,-132.85592 0.4215,-138.32232 2.23751,-10.53074 10.09509,-22.04594 17.276,-25.31778 l 2.29342,-1.04496 0,-15.21056 0,-15.21057 4.39345,-5.33668 c 4.49911,-5.46503 9.78359,-8.82752 16.87377,-10.73671 6.21921,-1.67466 13.21884,1.38895 21.15466,9.25902 l 6.32812,6.27569 0,15.42826 0,15.42826 3.04688,1.73904 c 7.94187,4.53292 14.54387,14.64757 16.59611,25.42619 0.74667,3.92163 0.98118,25.24891 0.78811,71.67653 l -0.27485,66.09379 -44.13155,0.2434 c -24.27235,0.1339 -44.41688,-0.042 -44.76562,-0.3906 z"
         id="path4203"
         inkscape:connector-curvature="0" />
      <path
         style="fill:#00e800;fill-opacity:0.69732941;stroke:none;stroke-opacity:1"
         d="m 673.77879,1001.0097 c -1.14134,-1.14135 -0.73997,-132.85592 0.4215,-138.32232 2.23751,-10.53074 10.09509,-22.04594 17.276,-25.31778 l 2.29342,-1.04496 0,-15.21056 0,-15.21057 4.39345,-5.33668 c 4.49911,-5.46503 9.78359,-8.82752 16.87377,-10.73671 6.21921,-1.67466 13.21884,1.38895 21.15466,9.25902 l 6.32812,6.27569 0,15.42826 0,15.42826 3.04688,1.73904 c 7.94187,4.53292 14.54387,14.64757 16.59611,25.42619 0.74667,3.92163 0.98118,25.24891 0.78811,71.67653 l -0.27485,66.09379 -44.13155,0.2434 c -24.27235,0.1339 -44.41688,-0.042 -44.76562,-0.3906 z"
         id="path4201"
         inkscape:connector-curvature="0" />
      <path
         style="fill:#00e800;fill-opacity:0.69732941;stroke:none;stroke-opacity:1"
         d="m 673.77879,1001.0097 c -1.14134,-1.14135 -0.73997,-132.85592 0.4215,-138.32232 2.23751,-10.53074 10.09509,-22.04594 17.276,-25.31778 l 2.29342,-1.04496 0,-15.21056 0,-15.21057 4.39345,-5.33668 c 4.49911,-5.46503 9.78359,-8.82752 16.87377,-10.73671 6.21921,-1.67466 13.21884,1.38895 21.15466,9.25902 l 6.32812,6.27569 0,15.42826 0,15.42826 3.04688,1.73904 c 7.94187,4.53292 14.54387,14.64757 16.59611,25.42619 0.74667,3.92163 0.98118,25.24891 0.78811,71.67653 l -0.27485,66.09379 -44.13155,0.2434 c -24.27235,0.1339 -44.41688,-0.042 -44.76562,-0.3906 z"
         id="path4199"
         inkscape:connector-curvature="0" />
      <path
         style="fill:#00e800;fill-opacity:0.69732941;stroke:none;stroke-opacity:1"
         d="m 673.77879,1001.0097 c -1.14134,-1.14135 -0.73997,-132.85592 0.4215,-138.32232 2.23751,-10.53074 10.09509,-22.04594 17.276,-25.31778 l 2.29342,-1.04496 0,-15.21056 0,-15.21057 4.39345,-5.33668 c 4.49911,-5.46503 9.78359,-8.82752 16.87377,-10.73671 6.21921,-1.67466 13.21884,1.38895 21.15466,9.25902 l 6.32812,6.27569 0,15.42826 0,15.42826 3.04688,1.73904 c 7.94187,4.53292 14.54387,14.64757 16.59611,25.42619 0.74667,3.92163 0.98118,25.24891 0.78811,71.67653 l -0.27485,66.09379 -44.13155,0.2434 c -24.27235,0.1339 -44.41688,-0.042 -44.76562,-0.3906 z"
         id="path4197"
         inkscape:connector-curvature="0" />
      <path
         style="fill:#00e800;fill-opacity:0.69732941;stroke:none;stroke-opacity:1"
         d="m 673.77879,1001.0097 c -1.14134,-1.14135 -0.73997,-132.85592 0.4215,-138.32232 2.23751,-10.53074 10.09509,-22.04594 17.276,-25.31778 l 2.29342,-1.04496 0,-15.21056 0,-15.21057 4.39345,-5.33668 c 4.49911,-5.46503 9.78359,-8.82752 16.87377,-10.73671 6.21921,-1.67466 13.21884,1.38895 21.15466,9.25902 l 6.32812,6.27569 0,15.42826 0,15.42826 3.04688,1.73904 c 7.94187,4.53292 14.54387,14.64757 16.59611,25.42619 0.74667,3.92163 0.98118,25.24891 0.78811,71.67653 l -0.27485,66.09379 -44.13155,0.2434 c -24.27235,0.1339 -44.41688,-0.042 -44.76562,-0.3906 z"
         id="path4195"
         inkscape:connector-curvature="0" />
      <path
         style="fill:#00e800;fill-opacity:0.69732941;stroke:none;stroke-opacity:1"
         d="m 673.77879,1001.0097 c -1.14134,-1.14135 -0.73997,-132.85592 0.4215,-138.32232 2.23751,-10.53074 10.09509,-22.04594 17.276,-25.31778 l 2.29342,-1.04496 0,-15.21056 0,-15.21057 4.39345,-5.33668 c 4.49911,-5.46503 9.78359,-8.82752 16.87377,-10.73671 6.21921,-1.67466 13.21884,1.38895 21.15466,9.25902 l 6.32812,6.27569 0,15.42826 0,15.42826 3.04688,1.73904 c 7.94187,4.53292 14.54387,14.64757 16.59611,25.42619 0.74667,3.92163 0.98118,25.24891 0.78811,71.67653 l -0.27485,66.09379 -44.13155,0.2434 c -24.27235,0.1339 -44.41688,-0.042 -44.76562,-0.3906 z m 82.59884,-71.80596 -0.26417,-66.79688 -2.62888,-5.625 c -3.00536,-6.43055 -6.88427,-10.79743 -12.52953,-14.10577 -3.81989,-2.2386 -4.43927,-2.30048 -23.02811,-2.30048 l -19.10264,0 -4.16792,2.68648 c -5.82249,3.75295 -8.79967,7.20009 -11.84929,13.71977 l -2.63113,5.625 -0.26417,66.79688 -0.26418,66.79687 38.4971,0 38.4971,0 -0.26418,-66.79687 z m -69.17042,-12.42188 0,-37.96875 3.28125,0 3.28125,0 0,37.96875 0,37.96875 -3.28125,0 -3.28125,0 0,-37.96875 z m 8.4375,-6.09375 0,-44.0625 3.28125,0 3.28125,0 0,44.0625 0,44.0625 -3.28125,0 -3.28125,0 0,-44.0625 z m 40.3125,-90.2664 0,-12.4539 -4.92187,-4.84758 c -5.63619,-5.55111 -10.75038,-8.06921 -14.53915,-7.15872 -4.91317,1.1807 -9.28718,3.99368 -12.7155,8.17749 l -3.44848,4.20842 0,12.26409 0,12.2641 17.8125,0 17.8125,0 0,-12.4539 z"
         id="path4193"
         inkscape:connector-curvature="0" />
      <path
         style="fill:#00e800;fill-opacity:0.69732941;stroke:none;stroke-opacity:1"
         d="m 673.77879,1001.0097 c -1.14134,-1.14135 -0.73997,-132.85592 0.4215,-138.32232 2.23751,-10.53074 10.09509,-22.04594 17.276,-25.31778 l 2.29342,-1.04496 0,-15.21056 0,-15.21057 4.39345,-5.33668 c 4.49911,-5.46503 9.78359,-8.82752 16.87377,-10.73671 6.21921,-1.67466 13.21884,1.38895 21.15466,9.25902 l 6.32812,6.27569 0,15.42826 0,15.42826 3.04688,1.73904 c 7.94187,4.53292 14.54387,14.64757 16.59611,25.42619 0.74667,3.92163 0.98118,25.24891 0.78811,71.67653 l -0.27485,66.09379 -44.13155,0.2434 c -24.27235,0.1339 -44.41688,-0.042 -44.76562,-0.3906 z m 82.59884,-71.80596 -0.26417,-66.79688 -2.62888,-5.625 c -3.00536,-6.43055 -6.88427,-10.79743 -12.52953,-14.10577 -3.81989,-2.2386 -4.43927,-2.30048 -23.02811,-2.30048 l -19.10264,0 -4.16792,2.68648 c -5.82249,3.75295 -8.79967,7.20009 -11.84929,13.71977 l -2.63113,5.625 -0.26417,66.79688 -0.26418,66.79687 38.4971,0 38.4971,0 -0.26418,-66.79687 z m -69.17042,-12.42188 0,-37.96875 3.28125,0 3.28125,0 0,37.96875 0,37.96875 -3.28125,0 -3.28125,0 0,-37.96875 z m 8.4375,-6.09375 0,-44.0625 3.28125,0 3.28125,0 0,44.0625 0,44.0625 -3.28125,0 -3.28125,0 0,-44.0625 z m 40.3125,-90.2664 0,-12.4539 -4.92187,-4.84758 c -5.63619,-5.55111 -10.75038,-8.06921 -14.53915,-7.15872 -4.91317,1.1807 -9.28718,3.99368 -12.7155,8.17749 l -3.44848,4.20842 0,12.26409 0,12.2641 17.8125,0 17.8125,0 0,-12.4539 z"
         id="path4191"
         inkscape:connector-curvature="0" />
      <path
         style="fill:#00e800;fill-opacity:0.69732941;stroke:none;stroke-opacity:1"
         d="m 673.77879,1001.0097 c -1.14134,-1.14135 -0.73997,-132.85592 0.4215,-138.32232 2.23751,-10.53074 10.09509,-22.04594 17.276,-25.31778 l 2.29342,-1.04496 0,-15.21056 0,-15.21057 4.39345,-5.33668 c 4.49911,-5.46503 9.78359,-8.82752 16.87377,-10.73671 6.21921,-1.67466 13.21884,1.38895 21.15466,9.25902 l 6.32812,6.27569 0,15.42826 0,15.42826 3.04688,1.73904 c 7.94187,4.53292 14.54387,14.64757 16.59611,25.42619 0.74667,3.92163 0.98118,25.24891 0.78811,71.67653 l -0.27485,66.09379 -44.13155,0.2434 c -24.27235,0.1339 -44.41688,-0.042 -44.76562,-0.3906 z m 82.59884,-71.80596 -0.26417,-66.79688 -2.62888,-5.625 c -3.00536,-6.43055 -6.88427,-10.79743 -12.52953,-14.10577 -3.81989,-2.2386 -4.43927,-2.30048 -23.02811,-2.30048 l -19.10264,0 -4.16792,2.68648 c -5.82249,3.75295 -8.79967,7.20009 -11.84929,13.71977 l -2.63113,5.625 -0.26417,66.79688 -0.26418,66.79687 38.4971,0 38.4971,0 -0.26418,-66.79687 z m -69.17042,-12.42188 0,-37.96875 3.28125,0 3.28125,0 0,37.96875 0,37.96875 -3.28125,0 -3.28125,0 0,-37.96875 z m 8.4375,-6.09375 0,-44.0625 3.28125,0 3.28125,0 0,44.0625 0,44.0625 -3.28125,0 -3.28125,0 0,-44.0625 z m 40.3125,-90.2664 0,-12.4539 -4.92187,-4.84758 c -5.63619,-5.55111 -10.75038,-8.06921 -14.53915,-7.15872 -4.91317,1.1807 -9.28718,3.99368 -12.7155,8.17749 l -3.44848,4.20842 0,12.26409 0,12.2641 17.8125,0 17.8125,0 0,-12.4539 z"
         id="path4189"
         inkscape:connector-curvature="0" />
    </g>
    <path
       style="fill:#000000;fill-opacity:1;stroke:#000000;stroke-opacity:1"
       d="m 577.55217,970.19478 c -1.14134,-1.14135 -0.73997,-132.85592 0.4215,-138.32232 2.23751,-10.53074 10.09509,-22.04594 17.276,-25.31778 l 2.29342,-1.04496 0,-15.21056 0,-15.21057 4.39345,-5.33668 c 4.49911,-5.46503 9.78359,-8.82752 16.87377,-10.73671 6.21921,-1.67466 13.21884,1.38895 21.15465,9.25902 l 6.32813,6.27569 0,15.42826 0,15.42826 3.04687,1.73904 c 7.94188,4.53292 14.54388,14.64757 16.59612,25.42619 0.74667,3.92163 0.98118,25.24891 0.78811,71.67653 l -0.27485,66.09379 -44.13155,0.2434 c -24.27235,0.1339 -44.41688,-0.042 -44.76562,-0.3906 z m 82.59884,-71.80596 -0.26417,-66.79688 -2.62888,-5.625 c -3.00536,-6.43055 -6.88427,-10.79743 -12.52953,-14.10577 -3.81989,-2.2386 -4.43927,-2.30048 -23.02811,-2.30048 l -19.10264,0 -4.16792,2.68648 c -5.82249,3.75295 -8.79967,7.20009 -11.84929,13.71977 l -2.63113,5.625 -0.26417,66.79688 -0.26418,66.79687 38.4971,0 38.4971,0 -0.26418,-66.79687 z m -69.17042,-12.42188 0,-37.96875 3.28125,0 3.28125,0 0,37.96875 0,37.96875 -3.28125,0 -3.28125,0 0,-37.96875 z m 8.4375,-6.09375 0,-44.0625 3.28125,0 3.28125,0 0,44.0625 0,44.0625 -3.28125,0 -3.28125,0 0,-44.0625 z m 40.3125,-90.2664 0,-12.4539 -4.92188,-4.84758 c -5.63618,-5.55111 -10.75037,-8.06921 -14.53914,-7.15872 -4.91317,1.1807 -9.28718,3.99368 -12.7155,8.17749 l -3.44848,4.20842 0,12.26409 0,12.2641 17.8125,0 17.8125,0 0,-12.4539 z"
       id="path4185"
       inkscape:connector-curvature="0" />
  </g>
</svg>
